<?xml version="1.0" encoding="UTF-8" standalone="no"?>
<!-- Created with Inkscape (http://www.inkscape.org/) -->

<svg
   xmlns:dc="http://purl.org/dc/elements/1.1/"
   xmlns:cc="http://creativecommons.org/ns#"
   xmlns:rdf="http://www.w3.org/1999/02/22-rdf-syntax-ns#"
   xmlns:svg="http://www.w3.org/2000/svg"
   xmlns="http://www.w3.org/2000/svg"
   xmlns:sodipodi="http://sodipodi.sourceforge.net/DTD/sodipodi-0.dtd"
   xmlns:inkscape="http://www.inkscape.org/namespaces/inkscape"
   id="svg3456"
   version="1.1"
   inkscape:version="0.91 r13725"
   xml:space="preserve"
   width="257.5"
   height="80"
   viewBox="0 0 257.5 80"
   sodipodi:docname="vv-logo-white.svg"><metadata
     id="metadata3462"><rdf:RDF><cc:Work
         rdf:about=""><dc:format>image/svg+xml</dc:format><dc:type
           rdf:resource="http://purl.org/dc/dcmitype/StillImage" /><dc:title></dc:title></cc:Work></rdf:RDF></metadata><defs
     id="defs3460"><clipPath
       clipPathUnits="userSpaceOnUse"
       id="clipPath3470"><path
         d="M 0,64 206,64 206,0 0,0 0,64 Z"
         id="path3472"
         inkscape:connector-curvature="0" /></clipPath></defs><sodipodi:namedview
     pagecolor="#ffffff"
     bordercolor="#666666"
     borderopacity="1"
     objecttolerance="10"
     gridtolerance="10"
     guidetolerance="10"
     inkscape:pageopacity="0"
     inkscape:pageshadow="2"
     inkscape:window-width="640"
     inkscape:window-height="480"
     id="namedview3458"
     showgrid="false"
     inkscape:zoom="1.4757282"
     inkscape:cx="128.75"
     inkscape:cy="40"
     inkscape:window-x="0"
     inkscape:window-y="0"
     inkscape:window-maximized="0"
     inkscape:current-layer="g3464" /><g
     id="g3464"
     inkscape:groupmode="layer"
     inkscape:label="vv-logo-white"
     transform="matrix(1.25,0,0,-1.25,0,80)"><g
       id="g3466"><g
         id="g3468"
         clip-path="url(#clipPath3470)"><g
           id="g3474"
           transform="translate(46.5302,8.1407)"><path
             d="m 0,0 c -0.319,0 -0.479,0 -0.702,0.064 l -34.164,9.515 c -1.596,0.479 -2.554,1.979 -2.331,3.576 l 5.588,32.886 c 0.159,0.798 0.638,1.533 1.373,1.756 l 12.132,5.268 c 0.799,0.32 1.597,0.479 2.555,0.479 0.479,0 0.798,-0.064 1.277,-0.159 l 33.11,-6.45 c 0.255,0 0.319,-0.16 0.319,-0.383 L 12.835,13.091 C 12.676,12.293 12.356,11.558 11.718,10.92 L 1.916,0.798 C 1.437,0.255 0.798,0 0,0"
             style="fill:#cfb56b;fill-opacity:1;fill-rule:nonzero;stroke:none"
             id="path3476"
             inkscape:connector-curvature="0" /></g><g
           id="g3478"
           transform="translate(53.0303,47.823)"><path
             d="m 0,0 -27.874,5.843 -6.864,2.075 c -0.256,0.064 -0.256,0.383 0,0.479 l 10.6,4.534 c 0.958,0.479 1.916,0.479 2.874,0.319 L 10.664,7.12 c 0.256,0 0.319,-0.383 0.064,-0.575 L 2.618,0.575 C 1.82,0 0.862,-0.223 0,0 M 1.117,-2.554 0,-8.046 c -0.064,-0.479 0.479,-0.894 0.862,-0.575 0,0 5.173,3.672 4.949,3.512 l -6.13,-6.96 c -0.479,-0.479 -0.703,-0.958 -0.799,-1.501 l -0.574,-3.033 c -0.064,-0.479 0.479,-0.894 0.894,-0.638 0,0 5.747,4.214 5.491,3.991 l -6.768,-7.919 c -0.479,-0.479 -0.799,-1.021 -0.894,-1.596 l -0.479,-2.491 c -0.064,-0.478 0.383,-0.894 0.862,-0.574 0,0 5.523,3.991 5.428,3.831 l -5.332,-6.417 c -1.916,-2.076 -2.172,-3.034 -2.299,-3.992 l -1.118,-5.587 c -0.159,-0.702 -0.702,-1.118 -1.437,-0.958 l -33.62,9.196 c -1.501,0.478 -2.459,1.851 -2.14,3.448 l 5.588,33.014 c 0,0.064 0.16,0.223 0.383,0.223 l 37.037,-7.662 c 0,0.032 1.533,-0.384 1.213,-1.82 M -24.681,13.57 -36.814,8.301 C -37.516,7.918 -38.155,7.28 -38.346,6.386 l -5.556,-32.951 c -0.319,-1.66 0.798,-3.352 2.491,-3.831 l 34.067,-9.355 c 1.022,-0.319 2.172,0 2.81,0.734 l 9.898,10.281 c 0.575,0.575 0.958,1.341 1.117,2.235 L 12.803,6.96 c 0.064,0.224 -0.159,0.479 -0.479,0.575 -3.576,0.639 -26.277,5.013 -33.141,6.386 -1.373,0.287 -2.746,0.128 -3.864,-0.351"
             style="fill:#000000;fill-opacity:1;fill-rule:nonzero;stroke:none"
             id="path3480"
             inkscape:connector-curvature="0" /></g><g
           id="g3482"
           transform="translate(50.0614,38.257)"><path
             d="m 0,0 -0.16,-0.295 -0.063,0 c -3.513,2.515 -6.642,3.711 -11.112,4.669 -0.383,0.16 -0.702,0.595 -0.574,0.978 l 0.159,0.808 c 0.064,0.479 0.479,0.643 0.958,0.643 C -6.801,5.909 -3.768,4.615 -0.639,2.699 0.255,2.188 0.575,0.894 0,0"
             style="fill:#000000;fill-opacity:1;fill-rule:nonzero;stroke:none"
             id="path3484"
             inkscape:connector-curvature="0" /></g><g
           id="g3486"
           transform="translate(28.1832,46.7006)"><path
             d="m 0,0 -0.255,-0.798 c -0.064,-0.319 -0.384,-0.479 -0.703,-0.479 -4.853,0.575 -11.654,0.16 -11.654,0.16 0,0 -0.383,1.756 1.756,2.394 C -7.344,1.596 -4.63,1.501 -0.639,0.894 -0.16,0.798 0.096,0.319 0,0 m 21.711,-8.557 c -1.596,-6.96 -6.545,-6.865 -10.376,-6.322 -3.576,0.479 -5.428,2.714 -6.067,5.492 -0.255,0.702 -0.479,1.437 -1.117,1.596 L 2.65,-7.312 c -0.639,0.16 -1.437,-0.159 -1.916,-0.702 -1.915,-2.171 -4.693,-3.448 -7.407,-2.618 -4.885,1.532 -6.162,5.172 -5.747,9.419 l 34.131,-7.344"
             style="fill:#000000;fill-opacity:1;fill-rule:nonzero;stroke:none"
             id="path3488"
             inkscape:connector-curvature="0" /></g><g
           id="g3490"
           transform="translate(15.5914,6.7997)"><path
             d="M 0,0 0.894,2.618 C 2.107,2.682 3.193,3.257 3.927,4.151 4.566,4.853 5.588,5.045 6.418,4.534 6.801,4.278 7.12,4.055 7.439,3.831 8.142,3.353 8.397,2.395 7.823,1.66 6.386,-0.415 4.247,-1.692 1.756,-2.012 0.543,-2.139 -0.319,-1.022 0,0 m -6.865,8.238 c 0.479,0 0.862,0 1.277,-0.064 C -4.63,8.11 -3.991,7.376 -3.831,6.577 -3.672,5.46 -3.193,4.406 -2.395,3.704 L -3.193,1.086 C -3.576,0.064 -4.949,-0.351 -5.907,0.383 -7.503,1.98 -8.525,4.215 -8.621,6.609 c 0.064,0.99 0.798,1.629 1.756,1.629 m 9.962,7.247 C 6.13,14.528 8.206,12.229 9.004,9.419 9.387,8.397 8.206,7.439 7.248,7.982 6.29,8.461 5.396,9.004 4.374,9.323 c -1.852,0.798 -3.767,1.341 -5.843,1.756 -0.479,0.064 -0.894,0.16 -1.277,0.256 l -1.916,0.255 c -1.021,0.064 -1.436,1.437 -0.638,2.171 2.267,1.884 5.364,2.618 8.397,1.724 m 0.894,2.714 c -6.386,1.916 -12.995,-1.532 -15.006,-7.822 -1.852,-6.322 1.596,-12.931 7.886,-14.847 6.29,-1.98 12.995,1.533 14.911,7.823 1.947,6.321 -1.501,12.931 -7.791,14.846"
             style="fill:#8ca8df;fill-opacity:1;fill-rule:nonzero;stroke:none"
             id="path3492"
             inkscape:connector-curvature="0" /></g><g
           id="g3494"
           transform="translate(20.1252,16.506)"><path
             d="m 0,0 c 0.766,-0.255 1.469,-0.607 2.139,-0.99 0.256,-0.128 0.511,-0.255 0.767,-0.415 0.383,-0.223 0.712,-0.096 0.904,0.096 0.096,0.096 0.422,0.383 0.17,0.862 l 0,0.032 C 3.226,2.395 1.192,4.502 -1.618,5.364 -4.459,6.194 -7.402,5.556 -9.605,3.672 -9.925,3.384 -9.911,3.001 -9.815,2.746 -9.72,2.458 -9.458,2.235 -9.17,2.235 L -7.219,1.98 C -6.804,1.884 -6.387,1.82 -5.908,1.724 -3.737,1.373 -1.788,0.798 0,0 m 3.321,-2.299 c -0.288,0 -0.543,0.064 -0.799,0.224 -0.255,0.127 -0.51,0.304 -0.766,0.432 -0.67,0.351 -1.309,0.723 -2.043,0.974 l -0.032,0 c -1.724,0.755 -3.608,1.261 -5.747,1.676 -0.479,0.064 -0.863,0.135 -1.278,0.231 l -1.883,0.211 c -0.607,0.032 -1.118,0.441 -1.309,1.048 -0.224,0.638 -0.032,1.337 0.478,1.784 2.395,2.044 5.652,2.745 8.749,1.851 C 1.724,5.174 3.991,2.874 4.853,-0.191 5.077,-0.797 4.885,-1.468 4.374,-1.915 4.087,-2.139 3.704,-2.299 3.321,-2.299 m -13.506,-6.769 c 0.351,-0.255 0.798,-0.319 1.213,-0.223 0.415,0.127 0.734,0.383 0.862,0.766 l 0.703,2.363 c -0.735,0.734 -1.214,1.783 -1.373,2.964 -0.128,0.575 -0.607,1.272 -1.405,1.272 l -0.032,0 c -0.351,0 -0.735,0.037 -1.213,0.037 -0.767,0 -1.278,-0.492 -1.341,-1.29 0.095,-2.172 1.021,-4.324 2.586,-5.889 m 0.83,-1.085 c -0.479,0 -0.926,0.159 -1.309,0.447 l -0.073,0.032 c -1.724,1.724 -2.631,4.086 -2.882,6.481 l 0,0.032 0,0.032 c 0.251,1.213 0.998,2.043 2.18,2.043 0.479,0 0.914,0 1.361,-0.095 1.054,-0.096 1.894,-0.862 2.086,-1.916 0.159,-1.086 0.611,-2.044 1.314,-2.65 l 0.194,-0.16 -0.861,-2.873 c -0.255,-0.639 -0.734,-1.086 -1.404,-1.278 -0.224,-0.063 -0.415,-0.095 -0.606,-0.095 m 5.204,0.319 c -0.096,-0.351 -0.032,-0.766 0.224,-1.054 0.255,-0.319 0.67,-0.479 1.085,-0.415 2.395,0.32 4.438,1.565 5.779,3.512 0.256,0.32 0.256,0.607 0.224,0.831 C 3.097,-6.641 2.937,-6.354 2.65,-6.194 2.299,-5.939 2.012,-5.715 1.628,-5.492 0.99,-5.109 0.16,-5.236 -0.351,-5.811 -1.086,-6.705 -2.171,-7.28 -3.384,-7.439 l -0.767,-2.395 z m 1.15,-2.148 c -0.575,0 -1.15,0.196 -1.533,0.643 -0.447,0.511 -0.575,1.151 -0.383,1.79 l 0.958,2.859 0.255,0.024 c 1.086,0.064 2.108,0.571 2.746,1.37 0.766,0.862 2.012,1.051 3.001,0.477 0.415,-0.256 0.735,-0.512 1.086,-0.736 0.447,-0.287 0.766,-0.766 0.83,-1.309 0.096,-0.511 -0.064,-0.963 -0.383,-1.346 -1.469,-2.107 -3.736,-3.521 -6.322,-3.772 l -0.255,0 z m -1.15,20.603 c -4.949,0 -9.451,-3.129 -11.015,-8.078 -1.788,-6.194 1.564,-12.484 7.631,-14.336 2.969,-0.926 6.098,-0.671 8.844,0.766 2.714,1.437 4.694,3.832 5.588,6.769 1.851,6.098 -1.533,12.516 -7.568,14.336 -1.149,0.383 -2.33,0.543 -3.48,0.543 m 0.096,-23.755 c -1.245,0 -2.522,0.191 -3.736,0.575 -6.513,1.979 -10.089,8.716 -8.173,15.325 2.075,6.546 8.876,10.09 15.517,8.078 C 6.003,6.897 9.611,0 7.631,-6.513 6.673,-9.642 4.534,-12.229 1.628,-13.761 c -1.756,-0.894 -3.703,-1.373 -5.683,-1.373"
             style="fill:#2f4155;fill-opacity:1;fill-rule:nonzero;stroke:none"
             id="path3496"
             inkscape:connector-curvature="0" /></g><g
           id="g3498"
           transform="translate(29.2959,23.1225)"><path
             d="m 0,0 c -7.503,2.171 -9.834,8.206 -10.536,10.792 -0.064,0.479 0.383,0.798 0.702,0.575 1.98,-0.894 6.45,-2.874 11.175,-4.151 C 5.236,6.098 12.452,5.843 14.687,5.779 15.07,5.779 15.166,5.396 15.07,5.141 13.953,3.257 9.962,-2.171 0,0"
             style="fill:#000000;fill-opacity:1;fill-rule:nonzero;stroke:none"
             id="path3500"
             inkscape:connector-curvature="0" /></g><g
           id="g3502"
           transform="translate(42.5934,27.2162)"><path
             d="m 0,0 c 0.255,0.255 0.064,0.575 -0.255,0.575 -3.672,-0.096 -7.727,0.223 -11.878,1.277 -4.246,0.958 -8.461,2.873 -10.153,3.672 -0.319,0.159 -0.575,-0.16 -0.479,-0.479 1.532,-3.033 4.406,-6.705 10.281,-7.599 C -7.982,-3.353 -3.352,-2.874 0,0"
             style="fill:#ffffff;fill-opacity:1;fill-rule:nonzero;stroke:none"
             id="path3504"
             inkscape:connector-curvature="0" /></g><g
           id="g3506"
           transform="translate(44.9475,50.7937)"><path
             d="m 0,0 7.407,-1.277 c 1.278,-0.224 2.555,0.096 3.576,0.702 L 15.9,2.714 C 11.015,0.798 9.036,-0.255 0,0"
             style="fill:#000000;fill-opacity:1;fill-rule:nonzero;stroke:none"
             id="path3508"
             inkscape:connector-curvature="0" /></g><g
           id="g3510"
           transform="translate(26.7983,5.6183)"><path
             d="m 0,0 c -0.894,0.16 -1.533,0.862 -1.596,1.756 -0.16,1.756 -0.064,4.247 1.021,7.28 0.32,0.894 1.118,1.213 1.916,1.021 L 5.109,9.579 C 6.45,9.419 8.557,7.918 7.823,3.831 7.503,2.171 6.928,0.958 6.226,0.255 5.428,-0.543 4.63,-0.543 4.055,-0.447 L 0,0 Z"
             style="fill:#cfb56b;fill-opacity:1;fill-rule:nonzero;stroke:none"
             id="path3512"
             inkscape:connector-curvature="0" /></g><g
           id="g3514"
           transform="translate(26.8622,6.0014)"><path
             d="M 0,0 4.055,-0.479 C 4.566,-0.543 5.204,-0.543 5.875,0.128 6.545,0.798 7.056,1.98 7.376,3.512 7.759,5.747 7.248,7.024 6.737,7.695 6.29,8.301 5.651,8.717 4.981,8.78 L 1.213,9.259 C 0.511,9.387 -0.064,9.1 -0.287,8.493 -1.181,6.098 -1.501,3.704 -1.309,1.405 -1.181,0.702 -0.702,0.128 0,0 m 4.438,-1.309 c -0.223,0 -0.383,0.032 -0.479,0.032 l -4.087,0.479 c -1.053,0.191 -1.82,1.053 -1.915,2.107 -0.224,2.427 0.127,4.917 1.053,7.439 0.351,0.99 1.277,1.501 2.363,1.278 L 5.109,9.547 C 5.971,9.451 6.833,8.908 7.407,8.142 8.014,7.344 8.621,5.843 8.174,3.321 7.854,1.596 7.28,0.319 6.482,-0.479 5.715,-1.149 4.949,-1.309 4.438,-1.309"
             style="fill:#000000;fill-opacity:1;fill-rule:nonzero;stroke:none"
             id="path3516"
             inkscape:connector-curvature="0" /></g><g
           id="g3518"
           transform="translate(10.0358,25.1586)"><path
             d="m 0,0 c 0.639,-0.639 0.702,-1.596 0.255,-2.395 -0.957,-1.436 -2.458,-3.448 -5.172,-5.108 -0.798,-0.479 -1.596,-0.256 -2.235,0.319 l -0.575,0.575 c -0.958,0.958 -1.756,3.448 1.277,6.226 1.278,1.117 2.395,1.756 3.449,1.916 1.117,0.159 1.756,-0.32 2.235,-0.703 L 0,0 Z"
             style="fill:#cfb56b;fill-opacity:1;fill-rule:nonzero;stroke:none"
             id="path3520"
             inkscape:connector-curvature="0" /></g><g
           id="g3522"
           transform="translate(7.4496,26.308)"><path
             d="m 0,0 c -0.128,0 -0.255,0 -0.383,-0.032 -0.926,-0.16 -1.98,-0.734 -3.225,-1.82 -1.277,-1.181 -1.979,-2.426 -2.011,-3.64 -0.032,-1.149 0.574,-1.82 0.734,-2.011 l 0.575,-0.575 c 0.383,-0.351 1.021,-0.67 1.756,-0.255 2.618,1.628 4.087,3.512 5.076,4.98 0.384,0.639 0.32,1.373 -0.191,1.884 L 1.533,-0.671 C 1.118,-0.287 0.671,0 0,0 m -3.257,-9.291 c -0.542,0 -1.117,0.223 -1.628,0.67 l -0.575,0.575 c -0.638,0.639 -0.99,1.596 -0.99,2.586 0.032,0.99 0.415,2.523 2.267,4.215 1.373,1.181 2.555,1.852 3.64,2.011 1.341,0.192 2.139,-0.447 2.555,-0.798 L 2.043,-0.064 2.842,-0.862 C 3.608,-1.628 3.736,-2.778 3.129,-3.736 2.107,-5.3 0.575,-7.28 -2.203,-8.972 -2.49,-9.195 -2.874,-9.291 -3.257,-9.291"
             style="fill:#000000;fill-opacity:1;fill-rule:nonzero;stroke:none"
             id="path3524"
             inkscape:connector-curvature="0" /></g><g
           id="g3526"
           transform="translate(97.7716,35.6996)"><path
             d="m 0,0 -7.095,0 0.639,3.268 5.651,0 c 0.735,0 1.054,-0.157 1.118,0.418 l 0.255,1.242 c 0,0.255 0,0.603 -0.479,0.603 l -6.034,0 0.319,2.514 6.418,0 c 0.734,0 1.117,0.216 1.213,0.695 l 0.319,1.974 c 0.096,0.319 0,0.6 -0.479,0.6 l -9.674,0 c -0.479,0 -0.734,-0.301 -0.798,-0.62 l -2.331,-13.319 c -0.096,-0.415 0,-0.643 0.479,-0.643 l 10.249,0 c 0.479,0 0.734,0.141 0.798,0.62 l 0.32,1.819 C 0.951,-0.254 0.632,0 -0.006,0"
             style="fill:#ffffff;fill-opacity:1;fill-rule:nonzero;stroke:none"
             id="path3528"
             inkscape:connector-curvature="0" /></g><g
           id="g3530"
           transform="translate(124.4221,35.6996)"><path
             d="m 0,0 -7.149,0 0.639,3.268 5.651,0 c 0.735,0 1.054,-0.157 1.118,0.418 l 0.255,1.242 c 0,0.255 0,0.603 -0.479,0.603 l -6.034,0 0.319,2.514 6.45,0 c 0.734,0 1.117,0.216 1.213,0.695 l 0.319,1.974 c 0.096,0.319 0,0.6 -0.479,0.6 l -9.674,0 c -0.479,0 -0.734,-0.301 -0.798,-0.62 L -10.98,-2.625 c -0.096,-0.415 0,-0.643 0.479,-0.643 l 10.249,0 c 0.479,0 0.734,0.141 0.798,0.62 l 0.319,1.819 C 0.929,-0.254 0.578,0 -0.06,0"
             style="fill:#ffffff;fill-opacity:1;fill-rule:nonzero;stroke:none"
             id="path3532"
             inkscape:connector-curvature="0" /></g><g
           id="g3534"
           transform="translate(185.5172,35.6996)"><path
             d="m 0,0 -7.282,0 0.639,3.268 5.651,0 c 0.735,0 1.054,-0.072 1.118,0.503 l 0.255,1.325 c 0,0.256 0,0.687 -0.479,0.687 l -6.034,0 0.319,2.262 6.45,0 c 0.734,0 1.117,0.302 1.213,0.781 l 0.319,1.93 c 0.096,0.32 0,0.558 -0.479,0.558 l -9.77,0 c -0.479,0 -0.734,-0.216 -0.798,-0.535 l -2.331,-13.236 c -0.096,-0.415 0,-0.56 0.479,-0.56 l 10.153,0 c 0.479,0 0.735,0.101 0.799,0.58 l 0.319,1.759 C 0.637,-0.103 0.254,0.06 -0.224,0.06"
             style="fill:#ffffff;fill-opacity:1;fill-rule:nonzero;stroke:none"
             id="path3536"
             inkscape:connector-curvature="0" /></g><g
           id="g3538"
           transform="translate(110.2452,39.7775)"><path
             d="m 0,0 c 0.958,0.255 2.012,1.277 2.171,2.586 0.479,3.065 -1.692,4.598 -4.757,4.598 -2.81,0 -5.492,-1.379 -5.811,-3.55 -0.16,-0.479 0,-0.421 0.415,-0.421 l 1.947,0 c 0.416,0 0.479,-0.09 0.639,0.166 0.415,1.053 1.533,1.056 2.267,1.056 0.894,0 2.012,-0.263 1.692,-1.573 C -1.692,1.968 -2.331,1.705 -3.704,1.705 l -1.053,0 c -0.415,0 -0.575,-0.469 -0.639,-0.789 l -0.255,-1.655 c -0.16,-0.415 0,-0.825 0.479,-0.825 l 0.957,0 c 1.533,0 2.331,-0.319 2.172,-1.628 -0.256,-1.118 -1.373,-1.533 -2.427,-1.533 -0.639,0 -1.948,0.453 -2.107,1.571 0,0.415 -0.16,0.836 -0.479,0.836 l -2.044,0 c -0.415,0 -0.574,-0.358 -0.638,-0.836 -0.415,-2.267 1.788,-4.138 4.661,-4.138 3.065,0 5.811,1.044 6.45,4.428 C 1.533,-1.299 1.118,-0.511 0,0"
             style="fill:#ffffff;fill-opacity:1;fill-rule:nonzero;stroke:none"
             id="path3540"
             inkscape:connector-curvature="0" /></g><g
           id="g3542"
           transform="translate(129.6352,46.8668)"><path
             d="m 0,0 c -0.479,0 -0.734,-0.319 -0.798,-0.639 l -0.32,-1.848 c -0.159,-0.479 0,-0.635 0.479,-0.635 l 3.545,0 -1.948,-10.653 c -0.096,-0.479 0.159,-0.661 0.479,-0.661 l 2.267,0 c 0.479,0 0.734,0.182 0.798,0.661 l 1.852,10.653 3.48,0 c 0.479,0 0.734,0.156 0.798,0.476 l 0.32,1.945 c 0.095,0.479 0,0.734 -0.479,0.734 C 10.473,0.001 0.128,0 0,0"
             style="fill:#ffffff;fill-opacity:1;fill-rule:nonzero;stroke:none"
             id="path3544"
             inkscape:connector-curvature="0" /></g><g
           id="g3546"
           transform="translate(125.6343,49.3587)"><path
             d="m 0,0 c 0.319,0 0.6,-0.037 0.639,0.255 l 0.255,1.533 c 0,0.255 0,0.319 -0.096,0.479 -0.159,0.16 -0.319,0.16 -0.479,0.096 L -6.705,0.457 C -7.024,0.361 -7.184,0.329 -7.184,0.106 -7.184,0.042 -7.088,0.01 -6.929,0.01 L 0,0 Z"
             style="fill:#ffffff;fill-opacity:1;fill-rule:nonzero;stroke:none"
             id="path3548"
             inkscape:connector-curvature="0" /></g><g
           id="g3550"
           transform="translate(167.8565,43.9587)"><path
             d="M 0,0 C 1.213,0 1.852,-0.302 2.107,-0.941 2.203,-1.26 2.203,-1.722 2.682,-1.722 l 2.171,0 c 0.479,0 0.639,0.238 0.798,0.621 0.256,2.746 -2.33,4.015 -5.076,4.015 -2.587,0 -5.716,-0.802 -6.769,-4.666 l -0.894,-5.015 c -0.575,-3.32 2.49,-4.854 5.076,-4.854 2.746,0 6.035,1.731 6.61,4.381 0.095,0.479 -0.16,0.741 -0.479,0.741 l -2.171,0 c -0.479,0 -0.575,-0.263 -0.735,-0.837 -0.415,-1.054 -1.373,-1.409 -2.586,-1.409 -1.437,0 -2.267,0.813 -2.107,2.026 l 0.798,4.349 C -2.586,-0.805 -1.437,0 0,0"
             style="fill:#ffffff;fill-opacity:1;fill-rule:nonzero;stroke:none"
             id="path3552"
             inkscape:connector-curvature="0" /></g><g
           id="g3554"
           transform="translate(204.1778,47.0136)"><path
             d="m 0,0 -2.49,0 c -0.639,0 -0.894,-0.597 -1.118,-0.756 l -4.023,-5.407 -2.171,5.412 C -9.962,-0.432 -10.121,0 -10.696,0 l -2.267,0 c -0.479,0 -0.734,-0.341 -0.798,-0.66 l -2.267,-13.172 c -0.096,-0.478 0.096,-0.75 0.479,-0.75 l 2.267,0 c 0.415,0 0.638,0.165 0.798,0.74 l 1.277,7.41 1.628,-3.708 c 0.16,-0.256 0.256,-0.42 0.479,-0.42 l 1.118,0 c 0.319,0 0.575,0.261 0.734,0.421 l 2.906,3.707 -1.373,-7.412 c -0.096,-0.479 0.159,-0.738 0.479,-0.738 l 2.426,0 c 0.415,0 0.639,0.165 0.799,0.74 L 0.255,-0.759 C 0.351,0.039 0,0 0,0"
             style="fill:#ffffff;fill-opacity:1;fill-rule:nonzero;stroke:none"
             id="path3556"
             inkscape:connector-curvature="0" /></g><g
           id="g3558"
           transform="translate(80.3808,41.2309)"><path
             d="m 0,0 -3.64,0 0.479,2.766 3.48,0 C 1.373,2.766 2.012,2.357 1.948,1.399 2.012,1.399 1.948,0 0,0 m 1.628,-3.909 c 0,-1.277 -0.734,-1.622 -2.267,-1.622 l -3.959,0 0.479,2.765 3.959,0 c 1.788,0 1.788,-1.143 1.788,-1.143 M 5.556,1.739 C 5.971,3.846 4.598,5.783 0.958,5.783 l -6.386,0 c -0.479,0 -0.734,-0.436 -0.798,-0.755 L -8.493,-8.048 c -0.16,-0.479 0,-0.752 0.479,-0.752 l 6.609,0 c 3.225,0 5.652,1.444 6.13,4.126 0.479,2.331 -1.213,3.174 -1.436,3.334 0.255,0 1.947,0.876 2.267,3.079"
             style="fill:#ffffff;fill-opacity:1;fill-rule:nonzero;stroke:none"
             id="path3560"
             inkscape:connector-curvature="0" /></g><g
           id="g3562"
           transform="translate(153.7527,41.2309)"><path
             d="m 0,0 -3.64,0 0.479,2.766 3.576,0 C 1.469,2.766 2.107,2.357 2.043,1.399 2.043,1.399 1.948,0 0,0 m 1.628,-3.909 c 0,-1.277 -0.734,-1.622 -2.267,-1.622 l -3.959,0 0.479,2.765 3.959,0 c 1.788,0 1.788,-1.143 1.788,-1.143 M 5.587,1.739 C 6.003,3.846 4.63,5.783 0.99,5.783 l -6.29,0 c -0.479,0 -0.735,-0.436 -0.798,-0.755 L -8.429,-8.048 c -0.16,-0.479 0,-0.752 0.479,-0.752 l 6.609,0 c 3.225,0 5.651,1.444 6.13,4.126 0.575,2.331 -1.213,3.174 -1.436,3.334 0.223,0 1.915,0.876 2.234,3.079"
             style="fill:#ffffff;fill-opacity:1;fill-rule:nonzero;stroke:none"
             id="path3564"
             inkscape:connector-curvature="0" /></g><g
           id="g3566"
           transform="translate(74.6273,24.967)"><path
             d="M 0,0 C 0,0.351 -0.096,0.607 -0.287,0.83 -0.479,1.054 -0.734,1.149 -1.054,1.149 -1.373,1.149 -1.66,1.054 -1.884,0.862 -2.139,0.671 -2.331,0.383 -2.459,0 -2.586,-0.383 -2.65,-0.702 -2.65,-1.022 c 0,-0.383 0.096,-0.702 0.319,-0.926 0.224,-0.223 0.479,-0.351 0.798,-0.351 0.415,0 0.735,0.16 1.022,0.511 C -0.192,-1.277 0,-0.702 0,0 m -4.151,-1.054 c 0,0.99 0.288,1.788 0.862,2.395 0.575,0.607 1.309,0.894 2.235,0.894 0.799,0 1.405,-0.223 1.852,-0.671 0.447,-0.447 0.671,-1.021 0.671,-1.788 0,-0.862 -0.288,-1.628 -0.83,-2.266 -0.575,-0.639 -1.31,-0.958 -2.235,-0.958 -0.511,0 -0.958,0.095 -1.341,0.319 -0.384,0.192 -0.671,0.479 -0.894,0.862 -0.224,0.415 -0.32,0.798 -0.32,1.213"
             style="fill:#ffffff;fill-opacity:1;fill-rule:nonzero;stroke:none"
             id="path3568"
             inkscape:connector-curvature="0" /></g><g
           id="g3570"
           transform="translate(77.5648,27.1514)"><path
             d="m 0,0 1.437,0 -0.415,-2.011 2.011,0 L 3.448,0 4.885,0 3.736,-5.531 l -1.437,0 0.479,2.263 -2.012,0 -0.479,-2.263 -1.436,0 L 0,0 Z"
             style="fill:#ffffff;fill-opacity:1;fill-rule:nonzero;stroke:none"
             id="path3572"
             inkscape:connector-curvature="0" /></g><g
           id="g3574"
           transform="translate(84.2059,27.1514)"><path
             d="m 0,0 4.598,0 -1.15,-5.531 -1.437,0 0.894,4.274 -1.851,0 -0.607,-2.826 C 0.319,-4.626 0.128,-5.034 -0.16,-5.257 c -0.287,-0.224 -0.67,-0.348 -1.181,-0.348 -0.255,0 -0.543,0.034 -0.926,0.13 l 0.224,1.214 c 0.191,-0.032 0.383,-0.063 0.542,-0.063 0.256,0 0.415,0.096 0.511,0.256 0.096,0.159 0.192,0.549 0.319,1.028 L 0,0 Z"
             style="fill:#ffffff;fill-opacity:1;fill-rule:nonzero;stroke:none"
             id="path3576"
             inkscape:connector-curvature="0" /></g><g
           id="g3578"
           transform="translate(92.4918,24.2008)"><path
             d="m 0,0 c -0.251,-0.032 -0.232,-0.032 -0.391,-0.064 -0.735,-0.096 -1.234,-0.223 -1.457,-0.383 -0.16,-0.128 -0.234,-0.287 -0.234,-0.479 0,-0.16 0.059,-0.319 0.187,-0.415 0.128,-0.128 0.285,-0.16 0.476,-0.16 0.224,0 0.414,0.064 0.638,0.16 0.191,0.096 0.39,0.255 0.486,0.415 0.096,0.16 0.044,0.415 0.295,0.798 L 0,0 Z M -1.453,1.341 -2.89,1.469 c 0.16,0.479 0.447,0.862 0.862,1.117 0.415,0.256 0.926,0.415 1.597,0.415 0.702,0 1.213,-0.127 1.532,-0.415 C 1.42,2.299 1.612,1.98 1.612,1.564 1.612,1.405 1.612,1.213 1.58,1.054 1.548,0.862 1.452,0.383 1.293,-0.383 1.165,-1.022 1.069,-1.514 1.069,-1.769 c 0,-0.224 0.032,-0.309 0.128,-0.812 l -1.405,0 c -0.064,0.252 -0.096,0.461 -0.096,0.652 -0.223,-0.223 -0.447,-0.392 -0.734,-0.52 -0.287,-0.128 -0.543,-0.18 -0.83,-0.18 -0.447,0 -0.83,0.165 -1.118,0.452 -0.287,0.288 -0.447,0.674 -0.447,1.121 0,0.51 0.16,0.927 0.479,1.246 0.32,0.319 0.894,0.48 1.724,0.544 0.703,0.064 1.15,0.128 1.405,0.223 0.064,0.192 0.096,0.352 0.096,0.48 0,0.159 -0.064,0.287 -0.192,0.383 C -0.048,1.916 -0.24,1.98 -0.495,1.98 -0.751,1.98 -0.974,1.916 -1.102,1.82 -1.294,1.692 -1.389,1.564 -1.453,1.341"
             style="fill:#ffffff;fill-opacity:1;fill-rule:nonzero;stroke:none"
             id="path3580"
             inkscape:connector-curvature="0" /></g><g
           id="g3582"
           transform="translate(96.8177,29.1627)"><path
             d="m 0,0 0.702,0 c 0.064,-0.251 0.192,-0.438 0.32,-0.533 0.127,-0.096 0.287,-0.181 0.511,-0.181 0.415,0 0.734,0.211 0.989,0.714 L 3.193,0 C 3.065,-0.503 2.842,-0.789 2.522,-1.044 2.203,-1.3 1.852,-1.407 1.469,-1.407 1.086,-1.407 0.734,-1.31 0.479,-1.055 0.223,-0.831 0.064,-0.503 0,0 m -1.054,-2.011 1.469,0 -0.67,-3.232 c -0.096,-0.383 -0.128,-0.626 -0.128,-0.721 0,-0.16 0.064,-0.297 0.16,-0.425 0.127,-0.096 0.255,-0.165 0.446,-0.165 0.128,0 0.256,0.03 0.384,0.062 0.127,0.064 0.255,0.126 0.383,0.222 0.128,0.096 0.255,0.223 0.351,0.351 0.096,0.127 0.192,0.287 0.287,0.51 0.064,0.16 0.128,0.438 0.224,0.789 l 0.543,2.609 1.468,0 -1.117,-5.532 -1.373,0 0.16,0.78 c -0.607,-0.575 -1.246,-0.84 -1.948,-0.84 -0.447,0 -0.798,0.139 -1.054,0.395 -0.255,0.255 -0.383,0.612 -0.383,1.027 0,0.192 0.064,0.584 0.16,1.159 l 0.638,3.011 z"
             style="fill:#ffffff;fill-opacity:1;fill-rule:nonzero;stroke:none"
             id="path3584"
             inkscape:connector-curvature="0" /></g><g
           id="g3586"
           transform="translate(101.9582,27.1514)"><path
             d="m 0,0 1.437,0 -0.415,-2.011 2.011,0 L 3.448,0 4.885,0 3.736,-5.531 l -1.437,0 0.479,2.263 -2.012,0 -0.479,-2.263 -1.436,0 L 0,0 Z"
             style="fill:#ffffff;fill-opacity:1;fill-rule:nonzero;stroke:none"
             id="path3588"
             inkscape:connector-curvature="0" /></g><g
           id="g3590"
           transform="translate(107.2903,25.14)"><path
             d="m 0,0 2.842,0 -0.288,-1.509 -2.841,0 L 0,0 Z"
             style="fill:#ffffff;fill-opacity:1;fill-rule:nonzero;stroke:none"
             id="path3592"
             inkscape:connector-curvature="0" /></g><g
           id="g3594"
           transform="translate(113.9953,23.7218)"><path
             d="M 0,0 1.405,-0.223 C 1.181,-0.862 0.83,-1.341 0.383,-1.66 c -0.447,-0.32 -0.99,-0.479 -1.596,-0.479 -0.703,0 -1.245,0.191 -1.629,0.606 -0.415,0.416 -0.606,0.99 -0.606,1.693 0,0.574 0.127,1.149 0.351,1.66 0.255,0.511 0.607,0.926 1.117,1.245 0.479,0.288 1.022,0.447 1.629,0.447 0.638,0 1.149,-0.159 1.532,-0.511 C 1.564,2.682 1.788,2.235 1.82,1.692 L 0.447,1.533 C 0.415,1.82 0.319,2.043 0.16,2.203 0,2.331 -0.192,2.427 -0.447,2.427 -0.734,2.427 -0.99,2.331 -1.245,2.107 -1.501,1.884 -1.66,1.596 -1.82,1.149 -1.948,0.734 -2.011,0.351 -2.011,-0.032 c 0,-0.319 0.063,-0.575 0.223,-0.734 0.16,-0.16 0.351,-0.256 0.575,-0.256 0.223,0 0.447,0.096 0.67,0.256 C -0.319,-0.607 -0.128,-0.351 0,0"
             style="fill:#ffffff;fill-opacity:1;fill-rule:nonzero;stroke:none"
             id="path3596"
             inkscape:connector-curvature="0" /></g><g
           id="g3598"
           transform="translate(120.148,24.8393)"><path
             d="M 0,0 0,0.16 C 0,0.575 -0.155,0.862 -0.315,1.054 -0.506,1.245 -0.759,1.341 -1.078,1.341 -1.366,1.341 -1.668,1.254 -1.891,1.03 -2.115,0.807 -2.321,0.301 -2.385,0.049 L 0,0.049 0,0 Z m 1.095,-0.956 -3.609,0 0,-0.066 c 0,-0.351 0.064,-0.638 0.288,-0.862 0.191,-0.223 0.431,-0.319 0.719,-0.319 0.478,0 0.854,0.255 1.109,0.766 L 0.907,-1.66 c -0.255,-0.511 -0.608,-0.926 -1.023,-1.182 -0.415,-0.255 -0.895,-0.383 -1.438,-0.383 -0.734,0 -1.31,0.224 -1.757,0.703 -0.447,0.447 -0.67,1.053 -0.67,1.82 0,0.734 0.191,1.404 0.606,1.979 0.575,0.766 1.373,1.181 2.395,1.181 0.67,0 1.181,-0.191 1.564,-0.606 0.383,-0.415 0.575,-1.021 0.575,-1.755 0.064,-0.447 0,-0.802 -0.064,-1.053"
             style="fill:#ffffff;fill-opacity:1;fill-rule:nonzero;stroke:none"
             id="path3600"
             inkscape:connector-curvature="0" /></g><g
           id="g3602"
           transform="translate(123.6058,23.9772)"><path
             d="m 0,0 c 0,-0.415 0.096,-0.734 0.319,-0.99 0.192,-0.223 0.447,-0.351 0.735,-0.351 0.255,0 0.479,0.096 0.702,0.255 0.224,0.16 0.415,0.479 0.543,0.863 0.159,0.415 0.223,0.766 0.223,1.117 0,0.415 -0.095,0.702 -0.287,0.926 C 2.043,2.043 1.788,2.139 1.501,2.139 1.213,2.139 0.958,2.043 0.734,1.852 0.511,1.66 0.319,1.373 0.192,0.99 0.064,0.639 0,0.287 0,0 m -0.862,3.174 1.373,0 -0.128,-0.581 c 0.287,0.255 0.575,0.396 0.83,0.491 0.256,0.096 0.543,0.15 0.83,0.15 0.575,0 1.022,-0.196 1.373,-0.579 0.352,-0.383 0.511,-0.96 0.511,-1.759 0,-0.957 -0.287,-1.789 -0.894,-2.459 -0.511,-0.575 -1.117,-0.863 -1.82,-0.863 -0.702,0 -1.245,0.29 -1.628,0.865 l -0.575,-2.807 -1.469,0 1.597,7.542 z"
             style="fill:#ffffff;fill-opacity:1;fill-rule:nonzero;stroke:none"
             id="path3604"
             inkscape:connector-curvature="0" /></g><g
           id="g3606"
           transform="translate(129.5764,24.8886)"><path
             d="M 0,0 1.118,0 C 1.66,0 2.012,0.023 2.203,0.151 2.395,0.279 2.49,0.45 2.49,0.705 2.49,0.897 2.427,1.015 2.299,1.11 2.171,1.206 1.948,1.233 1.66,1.233 1.181,1.233 0.83,1.175 0.543,0.952 0.255,0.76 0.064,0.251 0,0 m -0.126,-0.943 c 0,-0.415 0.111,-0.767 0.303,-0.99 0.191,-0.224 0.55,-0.351 1.029,-0.351 0.319,0 0.578,0.064 0.738,0.159 0.16,0.096 0.225,0.256 0.225,0.447 0,0.224 -0.095,0.368 -0.286,0.496 -0.192,0.128 -0.382,0.176 -0.638,0.176 l -1.371,0 0,0.063 z m 2.712,0.447 c 0.351,-0.096 0.607,-0.256 0.767,-0.447 0.159,-0.192 0.255,-0.447 0.255,-0.735 0,-0.447 -0.192,-0.83 -0.607,-1.149 -0.415,-0.319 -1.053,-0.479 -1.915,-0.479 -0.799,0 -1.437,0.192 -1.852,0.639 -0.415,0.415 -0.639,0.989 -0.639,1.724 0,0.926 0.288,1.692 0.83,2.331 0.543,0.638 1.373,0.957 2.427,0.957 0.734,0 1.245,-0.159 1.532,-0.447 C 3.672,1.611 3.831,1.26 3.831,0.909 3.831,0.557 3.736,0.302 3.544,0.078 3.289,-0.177 2.969,-0.369 2.586,-0.496"
             style="fill:#ffffff;fill-opacity:1;fill-rule:nonzero;stroke:none"
             id="path3608"
             inkscape:connector-curvature="0" /></g><g
           id="g3610"
           transform="translate(135.164,27.1514)"><path
             d="M 0,0 1.469,0 0.798,-3.231 C 0.702,-3.615 0.671,-3.857 0.671,-3.953 c 0,-0.16 0.063,-0.297 0.159,-0.425 0.128,-0.096 0.256,-0.164 0.447,-0.164 0.128,0 0.256,0.029 0.383,0.061 0.128,0.064 0.256,0.127 0.383,0.223 0.128,0.095 0.256,0.222 0.352,0.35 0.095,0.128 0.191,0.287 0.287,0.511 0.064,0.159 0.128,0.437 0.224,0.788 L 3.448,0 4.917,0 3.8,-5.531 l -1.373,0 0.159,0.779 C 1.98,-5.327 1.341,-5.591 0.639,-5.591 c -0.447,0 -0.799,0.139 -1.054,0.394 -0.255,0.256 -0.383,0.612 -0.383,1.027 0,0.192 0.064,0.585 0.159,1.159 L 0,0 Z"
             style="fill:#ffffff;fill-opacity:1;fill-rule:nonzero;stroke:none"
             id="path3612"
             inkscape:connector-curvature="0" /></g><g
           id="g3614"
           transform="translate(143.9124,23.7218)"><path
             d="M 0,0 1.405,-0.223 C 1.181,-0.862 0.83,-1.341 0.383,-1.66 c -0.447,-0.32 -0.99,-0.479 -1.596,-0.479 -0.703,0 -1.246,0.191 -1.629,0.606 -0.383,0.416 -0.606,0.99 -0.606,1.693 0,0.574 0.127,1.149 0.351,1.66 0.255,0.511 0.607,0.926 1.117,1.245 0.479,0.288 1.022,0.447 1.629,0.447 0.638,0 1.149,-0.159 1.532,-0.511 C 1.564,2.682 1.788,2.235 1.82,1.692 L 0.447,1.533 C 0.415,1.82 0.319,2.043 0.16,2.203 0,2.331 -0.192,2.427 -0.447,2.427 -0.734,2.427 -0.99,2.331 -1.245,2.107 -1.501,1.884 -1.66,1.596 -1.82,1.149 -1.948,0.734 -2.012,0.351 -2.012,-0.032 c 0,-0.319 0.064,-0.575 0.224,-0.734 0.16,-0.16 0.351,-0.256 0.575,-0.256 0.223,0 0.447,0.096 0.67,0.256 C -0.319,-0.607 -0.128,-0.351 0,0"
             style="fill:#ffffff;fill-opacity:1;fill-rule:nonzero;stroke:none"
             id="path3616"
             inkscape:connector-curvature="0" /></g><g
           id="g3618"
           transform="translate(149.7873,27.1514)"><path
             d="m 0,0 4.885,0 -1.149,-5.531 -1.437,0 0.894,4.274 -2.012,0 -0.894,-4.274 -1.436,0 L 0,0 Z"
             style="fill:#ffffff;fill-opacity:1;fill-rule:nonzero;stroke:none"
             id="path3620"
             inkscape:connector-curvature="0" /></g><g
           id="g3622"
           transform="translate(158.8667,24.8393)"><path
             d="M 0,0 0,0.16 C 0,0.575 -0.07,0.862 -0.229,1.054 -0.421,1.245 -0.631,1.341 -0.951,1.341 -1.238,1.341 -1.519,1.254 -1.742,1.03 -1.966,0.807 -2.151,0.301 -2.215,0.049 L 0,0.049 0,0 Z m 1.297,-0.956 -3.56,0 0,-0.066 c 0,-0.351 0.04,-0.638 0.264,-0.862 0.191,-0.223 0.419,-0.319 0.706,-0.319 0.479,0 0.848,0.255 1.104,0.766 L 1.113,-1.66 c -0.256,-0.511 -0.61,-0.926 -1.025,-1.182 -0.416,-0.255 -0.896,-0.383 -1.439,-0.383 -0.734,0 -1.31,0.224 -1.757,0.703 -0.447,0.447 -0.671,1.053 -0.671,1.82 0,0.734 0.191,1.404 0.607,1.979 0.574,0.766 1.372,1.181 2.394,1.181 0.671,0 1.181,-0.191 1.565,-0.606 0.383,-0.415 0.574,-1.021 0.574,-1.755 0.032,-0.447 0,-0.802 -0.064,-1.053"
             style="fill:#ffffff;fill-opacity:1;fill-rule:nonzero;stroke:none"
             id="path3624"
             inkscape:connector-curvature="0" /></g><g
           id="g3626"
           transform="translate(162.5268,23.9772)"><path
             d="m 0,0 c 0,-0.415 0.096,-0.734 0.319,-0.99 0.192,-0.223 0.447,-0.351 0.735,-0.351 0.255,0 0.479,0.096 0.702,0.255 0.224,0.16 0.415,0.479 0.543,0.863 0.16,0.415 0.223,0.766 0.223,1.117 0,0.415 -0.095,0.702 -0.287,0.926 C 2.043,2.043 1.788,2.139 1.501,2.139 1.213,2.139 0.958,2.043 0.734,1.852 0.511,1.66 0.319,1.373 0.192,0.99 0.032,0.639 0,0.287 0,0 m -0.894,3.174 1.373,0 -0.128,-0.581 c 0.288,0.255 0.575,0.396 0.83,0.491 0.256,0.096 0.543,0.15 0.83,0.15 0.575,0 1.022,-0.196 1.373,-0.579 0.352,-0.383 0.511,-0.96 0.511,-1.759 0,-0.957 -0.287,-1.789 -0.894,-2.459 -0.511,-0.575 -1.117,-0.863 -1.82,-0.863 -0.702,0 -1.245,0.29 -1.628,0.865 l -0.575,-2.807 -1.468,0 1.596,7.542 z"
             style="fill:#ffffff;fill-opacity:1;fill-rule:nonzero;stroke:none"
             id="path3628"
             inkscape:connector-curvature="0" /></g><g
           id="g3630"
           transform="translate(170.6835,24.8393)"><path
             d="M 0,0 0,0.16 C 0,0.575 -0.039,0.862 -0.199,1.054 -0.391,1.245 -0.586,1.341 -0.905,1.341 -1.224,1.341 -1.466,1.254 -1.689,1.03 -1.913,0.807 -2.09,0.301 -2.154,0.049 L 0,0.049 0,0 Z m 1.358,-0.956 -3.621,0 0,-0.066 c 0,-0.351 0.071,-0.638 0.294,-0.862 0.192,-0.223 0.434,-0.319 0.722,-0.319 0.479,0 0.855,0.255 1.111,0.766 L 1.17,-1.66 C 0.914,-2.171 0.561,-2.586 0.146,-2.842 c -0.415,-0.255 -0.894,-0.383 -1.437,-0.383 -0.735,0 -1.31,0.224 -1.757,0.703 -0.447,0.447 -0.67,1.053 -0.67,1.82 0,0.734 0.191,1.404 0.606,1.979 0.575,0.766 1.373,1.181 2.395,1.181 0.67,0 1.181,-0.191 1.564,-0.606 0.383,-0.415 0.575,-1.021 0.575,-1.755 0.032,-0.447 0,-0.802 -0.064,-1.053"
             style="fill:#ffffff;fill-opacity:1;fill-rule:nonzero;stroke:none"
             id="path3632"
             inkscape:connector-curvature="0" /></g><g
           id="g3634"
           transform="translate(174.1168,24.8886)"><path
             d="M 0,0 1.118,0 C 1.66,0 2.012,0.023 2.203,0.151 2.395,0.279 2.49,0.45 2.49,0.705 2.49,0.897 2.427,1.015 2.299,1.11 2.171,1.206 1.948,1.233 1.66,1.233 1.181,1.233 0.83,1.175 0.543,0.952 0.287,0.76 0.096,0.251 0,0 m -0.165,-0.943 c 0,-0.415 0.146,-0.767 0.338,-0.99 0.192,-0.224 0.568,-0.351 1.047,-0.351 0.319,0 0.587,0.064 0.747,0.159 0.16,0.096 0.23,0.256 0.23,0.447 0,0.224 -0.093,0.368 -0.284,0.496 -0.192,0.128 -0.38,0.176 -0.636,0.176 l -1.442,0 0,0.063 z m 2.751,0.447 c 0.351,-0.096 0.607,-0.256 0.767,-0.447 0.159,-0.192 0.255,-0.447 0.255,-0.735 0,-0.447 -0.192,-0.83 -0.607,-1.149 -0.415,-0.319 -1.053,-0.479 -1.915,-0.479 -0.799,0 -1.437,0.192 -1.852,0.639 -0.415,0.415 -0.639,0.989 -0.639,1.724 0,0.926 0.288,1.692 0.83,2.331 0.543,0.638 1.373,0.957 2.427,0.957 0.734,0 1.245,-0.159 1.532,-0.447 C 3.672,1.611 3.831,1.26 3.831,0.909 3.831,0.557 3.736,0.302 3.544,0.078 3.289,-0.177 3.001,-0.369 2.586,-0.496"
             style="fill:#ffffff;fill-opacity:1;fill-rule:nonzero;stroke:none"
             id="path3636"
             inkscape:connector-curvature="0" /></g><g
           id="g3638"
           transform="translate(182.7056,24.967)"><path
             d="M 0,0 C 0,0.351 -0.096,0.607 -0.287,0.83 -0.479,1.054 -0.734,1.149 -1.054,1.149 -1.373,1.149 -1.66,1.054 -1.884,0.862 -2.139,0.671 -2.331,0.383 -2.459,0 -2.586,-0.383 -2.65,-0.702 -2.65,-1.022 c 0,-0.383 0.096,-0.702 0.319,-0.926 0.224,-0.223 0.479,-0.351 0.798,-0.351 0.415,0 0.735,0.16 1.022,0.511 C -0.192,-1.277 0,-0.702 0,0 m -4.183,-1.054 c 0,0.99 0.288,1.788 0.862,2.395 0.575,0.607 1.309,0.894 2.235,0.894 0.799,0 1.405,-0.223 1.852,-0.671 0.447,-0.447 0.671,-1.021 0.671,-1.788 0,-0.862 -0.288,-1.628 -0.83,-2.266 -0.575,-0.639 -1.309,-0.958 -2.235,-0.958 -0.511,0 -0.958,0.095 -1.341,0.319 -0.384,0.192 -0.671,0.479 -0.894,0.862 -0.224,0.415 -0.32,0.798 -0.32,1.213"
             style="fill:#ffffff;fill-opacity:1;fill-rule:nonzero;stroke:none"
             id="path3640"
             inkscape:connector-curvature="0" /></g><g
           id="g3642"
           transform="translate(186.2497,25.6375)"><path
             d="M 0,0 -1.213,0.192 C -0.83,1.117 -0.096,1.564 1.022,1.564 1.66,1.564 2.139,1.437 2.458,1.149 2.778,0.862 2.937,0.543 2.937,0.128 2.937,-0.223 2.81,-0.511 2.586,-0.734 2.363,-0.958 2.075,-1.117 1.788,-1.181 2.075,-1.245 2.299,-1.373 2.49,-1.628 2.682,-1.852 2.778,-2.107 2.778,-2.395 2.778,-2.81 2.586,-3.193 2.203,-3.544 1.82,-3.895 1.181,-4.055 0.351,-4.055 c -1.277,0 -2.043,0.511 -2.299,1.501 l 1.373,0.127 c 0.16,-0.51 0.511,-0.734 1.022,-0.734 0.255,0 0.479,0.064 0.639,0.224 0.159,0.159 0.255,0.351 0.255,0.542 0,0.256 -0.096,0.415 -0.255,0.543 -0.16,0.096 -0.415,0.16 -0.799,0.16 l 0.128,0.894 c 0.351,0 0.575,0 0.734,0.032 0.16,0.032 0.288,0.095 0.384,0.255 0.127,0.128 0.159,0.288 0.159,0.479 0,0.192 -0.064,0.351 -0.223,0.479 C 1.341,0.575 1.149,0.639 0.958,0.639 0.543,0.607 0.255,0.415 0,0"
             style="fill:#ffffff;fill-opacity:1;fill-rule:nonzero;stroke:none"
             id="path3644"
             inkscape:connector-curvature="0" /></g><g
           id="g3646"
           transform="translate(193.9764,24.967)"><path
             d="M 0,0 C 0,0.351 -0.096,0.607 -0.287,0.83 -0.479,1.054 -0.734,1.149 -1.054,1.149 -1.373,1.149 -1.66,1.054 -1.884,0.862 -2.107,0.671 -2.331,0.383 -2.458,0 -2.586,-0.383 -2.65,-0.702 -2.65,-1.022 c 0,-0.383 0.096,-0.702 0.319,-0.926 0.224,-0.223 0.479,-0.351 0.798,-0.351 0.416,0 0.735,0.16 1.022,0.511 C -0.223,-1.277 0,-0.702 0,0 m -4.183,-1.054 c 0,0.99 0.288,1.788 0.862,2.395 0.575,0.607 1.31,0.894 2.235,0.894 0.799,0 1.405,-0.223 1.852,-0.671 0.447,-0.447 0.671,-1.021 0.671,-1.788 0,-0.862 -0.288,-1.628 -0.83,-2.266 -0.575,-0.639 -1.309,-0.958 -2.235,-0.958 -0.511,0 -0.958,0.095 -1.341,0.319 -0.383,0.192 -0.671,0.479 -0.894,0.862 -0.224,0.415 -0.32,0.798 -0.32,1.213"
             style="fill:#ffffff;fill-opacity:1;fill-rule:nonzero;stroke:none"
             id="path3648"
             inkscape:connector-curvature="0" /></g><g
           id="g3650"
           transform="translate(196.9139,27.1514)"><path
             d="M 0,0 1.437,0 0.958,-2.337 c 0.255,0 0.479,0.044 0.575,0.14 0.127,0.096 0.287,0.31 0.479,0.661 0.383,0.67 0.67,1.119 0.894,1.279 C 3.129,-0.098 3.48,0 3.991,0 l 0.383,0 -0.191,-1.006 -0.192,0 c -0.16,0 -0.255,-0.062 -0.319,-0.126 C 3.608,-1.196 3.512,-1.339 3.384,-1.53 3.065,-2.041 2.842,-2.368 2.682,-2.496 2.522,-2.624 2.331,-2.723 2.139,-2.755 2.49,-2.819 2.746,-3.153 2.906,-3.696 l 0.51,-1.835 -1.373,0 -0.447,1.609 c -0.095,0.32 -0.191,0.518 -0.287,0.614 -0.096,0.095 -0.287,0.101 -0.543,0.101 l -0.511,-2.324 -1.436,0 L 0,0 Z"
             style="fill:#ffffff;fill-opacity:1;fill-rule:nonzero;stroke:none"
             id="path3652"
             inkscape:connector-curvature="0" /></g></g></g></g></svg>