<svg xmlns="http://www.w3.org/2000/svg" width="90" height="84" viewBox="0 0 90 84">
  <g fill="none" fill-rule="evenodd">
    <path fill="#D1B76B" d="M62.6890773,74.3478261 C62.248388,74.3478261 62.0280433,74.3478261 61.7195608,74.259677 L14.5658066,61.1254569 C12.3623601,60.4643385 11.0402922,58.392834 11.3487747,56.1891058 L19.0608374,10.7923051 C19.281182,9.690441 19.9422159,8.67672604 20.9558013,8.36820409 L37.7019944,1.09590107 C38.8037176,0.655155428 39.9054409,0.434782609 41.2275087,0.434782609 C41.8885427,0.434782609 42.329232,0.522931736 42.9902659,0.655155428 L88.6897455,9.55821731 C89.0422969,9.55821731 89.1304348,9.77859013 89.1304348,10.0871121 L80.4047868,56.2772549 C80.1844422,57.379119 79.7437529,58.392834 78.8623743,59.2743253 L65.333213,73.245962 C64.6721791,73.9952296 63.7908005,74.3478261 62.6890773,74.3478261"/>
    <path fill="#000" d="M26.6589146,0.750433418 L9.91447235,8.03405189 C8.94505728,8.56376959 8.06377085,9.44663244 7.79938492,10.6826404 L0.132192965,56.2383632 C-0.308450251,58.5338066 1.233801,60.8733931 3.56921005,61.5355403 L50.5858412,74.469481 C51.9958995,74.9109124 53.582215,74.469481 54.4635015,73.4541887 L68.1234412,59.2400969 C68.9165989,58.4455203 69.4453708,57.3860849 69.6656924,56.1500769 L78.3904281,9.88806386 C78.4785567,9.57906187 78.1701065,9.22591673 77.7294633,9.0934873 C72.7942592,8.21062446 41.4645266,2.16301397 31.9906975,0.264858853 C30.0959316,-0.132429427 28.2011658,0.0882862845 26.6589146,0.750433418 M62.2628864,23.0427202 L60.7206351,30.6353407 C60.6325065,31.2974878 61.3816,31.8713487 61.9103718,31.4299173 C61.9103718,31.4299173 69.0487919,26.3534559 68.7403417,26.5741716 L60.2799919,36.1973766 C59.6190271,36.8595238 59.3105768,37.5216709 59.1783839,38.2721043 L58.3852261,42.4657028 C58.2970974,43.12785 59.0461909,43.7017108 59.6190271,43.3485657 C59.6190271,43.3485657 67.550605,37.5216709 67.1980904,37.8306729 L57.8564542,48.7781722 C57.1954894,49.4403193 56.7548462,50.1907527 56.6226532,50.9853293 L55.9616884,54.4284944 C55.8735598,55.0906415 56.4904603,55.6645024 57.1514251,55.2230709 C57.1514251,55.2230709 64.7745527,49.7051782 64.6423597,49.9258939 L57.283618,58.7986655 C54.6397588,61.6679697 54.2872442,62.992264 54.1109869,64.3165582 L52.5687356,72.0416081 C52.348414,73.0127573 51.5993206,73.5866181 50.5858412,73.3659024 L4.18611055,60.6526774 C2.11508744,59.9905303 0.793157788,58.0923752 1.233801,55.8852181 L8.94505728,10.241209 C8.94505728,10.1529227 9.16537889,9.932207 9.47382914,9.932207 L60.5884422,20.5265611 C60.5884422,20.482418 62.7035296,21.0562788 62.2628864,23.0427202 M60.7206351,19.5112689 L22.2524824,11.4330738 L12.7786533,8.56376959 C12.4261387,8.47548331 12.4261387,8.03405189 12.7786533,7.90162246 L27.408008,1.63329626 C28.7299377,0.971149129 30.0518673,0.971149129 31.373797,1.19186484 L75.4381185,9.66734815 C75.7906331,9.66734815 75.8787617,10.1970659 75.5262472,10.4619247 L64.3339095,18.7166923 C63.2323015,19.5112689 61.9103718,19.8202709 60.7206351,19.5112689" transform="translate(11.304)"/>
    <path fill="#000" d="M16.429697,9.77443142 L16.2117966,10.128257 L16.1246364,10.128257 C11.3308255,6.81114226 7.05997592,5.0420144 0.958762162,3.7151685 C0.435800983,3.49402752 -3.00065528e-13,2.91906097 0.174320393,2.38832261 L0.392220884,1.2826177 C0.479381081,0.61919475 1.04592236,0.398053768 1.69962383,0.398053768 C7.14713611,1.63644327 11.2872454,3.40557113 15.5580951,6.05926292 C16.7783378,6.76691406 17.2141388,8.53604192 16.429697,9.77443142" transform="translate(51.304 23.043)"/>
    <path fill="#000" d="M47.9070433,14.0930373 C45.6973088,23.7543018 38.847132,23.6213486 33.5437692,22.8679472 C28.593964,22.2031813 26.030672,19.1009404 25.1467783,15.2452982 C24.7932207,14.2703082 24.4838579,13.2510004 23.5999641,13.0294118 L21.5228137,12.3646459 C20.6389199,12.1430573 19.5340527,12.5862345 18.8711324,13.3396359 C16.219451,16.3532413 12.374513,18.1259504 8.61796443,16.9736895 C1.85617695,14.8464386 0.0883893788,9.79421772 0.662920341,3.89996 L47.9070433,14.0930373 M17.8546545,2.21588636 L17.501097,3.32382954 C17.4127076,3.76700681 16.9707607,3.98859545 16.5288138,3.98859545 C9.81122104,3.19087636 0.397752204,3.76700681 0.397752204,3.76700681 C0.397752204,3.76700681 -0.132584068,1.32953182 2.82846012,0.443177272 C7.68987595,3.08086889e-15 11.4464246,0.132953182 16.9707607,0.974989999 C17.6336811,1.10794318 17.9872386,1.77270909 17.8546545,2.21588636" transform="translate(19.565 18.696)"/>
    <g transform="translate(3.478 49.565)">
      <path fill="#7290CB" d="M22.1947993,1.63869113 C13.3698294,-1.01864584 4.23598555,3.76456071 1.45612003,12.4894838 C-1.10312124,21.2586958 3.66236251,30.4265083 12.3549579,33.0838453 C21.0475532,35.8297601 30.3137716,30.9579757 32.9612626,22.2330526 C35.6528784,13.4638406 30.8873946,4.2960281 22.1947993,1.63869113 M20.9593035,5.40325184 C25.1511642,6.73192032 28.0192794,9.92072468 29.1224007,13.8181522 C29.6518989,15.2353986 28.0192794,16.5640671 26.6955339,15.811155 C25.3717885,15.1468207 24.1362927,14.3939086 22.7242975,13.9510191 C20.1650562,12.8437953 17.5175652,12.0908832 14.64945,11.5151269 C13.9875773,11.426549 13.4139542,11.2936821 12.8844561,11.1608153 L10.2369651,10.8065037 C8.8249699,10.7179258 8.25134685,8.81350095 9.35446809,7.79485511 C12.4873324,5.18180709 16.7674428,4.16316125 20.9593035,5.40325184 M7.19235047,15.4568434 C7.85422321,15.4568434 8.3837214,15.4568434 8.95734445,15.5454213 C10.2810899,15.6339992 11.1635869,16.652645 11.3842112,17.7598687 C11.6048354,19.309982 12.2667082,20.7715173 13.3698294,21.7458742 L12.2667082,25.3775681 C11.73721,26.7948144 9.83984144,27.3705708 8.51609595,26.3519249 C6.30985348,24.1374775 4.89785829,21.037251 4.76548374,17.7155798 C4.85373344,16.3426224 5.86860498,15.4568434 7.19235047,15.4568434 M16.6791931,26.8833923 L17.9146889,23.2516985 C19.5914332,23.1631206 21.0916781,22.3659195 22.1065496,21.1258289 C22.9890466,20.151472 24.4010418,19.8857383 25.5482879,20.5943615 C26.077786,20.9486731 26.5190345,21.2586958 26.960283,21.5687184 C27.9310297,22.2330526 28.2840285,23.5617211 27.4897812,24.580367 C25.504163,27.4591487 22.5477981,29.2307067 19.1060598,29.6735962 C17.4293155,29.850752 16.2379446,28.3006387 16.6791931,26.8833923"/>
      <path fill="#2F4155" d="M17.3410658,34.4125137 C15.6201967,34.4125137 13.8552027,34.14678 12.1784585,33.6153127 C3.17698916,30.8693978 -1.76499398,21.5244294 0.88249699,12.3566169 C3.75061221,3.27738226 13.1492051,-1.63869113 22.3271738,1.15151269 L22.3271738,1.15151269 C31.2403934,3.8531386 36.2265014,13.4195517 33.4907608,22.4544974 C32.1670153,26.7948144 29.2106504,30.3822193 25.1952891,32.5080889 C22.7684223,33.7481795 20.0768065,34.4125137 17.3410658,34.4125137 L17.3410658,34.4125137 Z M17.2086913,1.46153533 C10.3693396,1.46153533 4.14773585,5.80185238 1.98561823,12.6666396 C-0.485373344,21.2586958 4.14773585,29.9836188 12.5314573,32.5523779 C16.6350683,33.8367574 20.9593035,33.4824458 24.7540406,31.4894431 C28.5046528,29.4964404 31.2403934,26.1747691 32.4758892,22.1001858 C35.0351305,13.6409964 30.3578964,4.73891759 22.0182999,2.21444747 C20.4298053,1.68298008 18.7971859,1.46153533 17.2086913,1.46153533 L17.2086913,1.46153533 Z M18.7971859,30.2050635 C18.0029386,30.2050635 17.2086913,29.850752 16.6791931,29.2307067 C16.0614452,28.5220835 15.8849458,27.5920155 16.1496949,26.7062365 L16.1496949,26.7062365 L17.4734404,22.7202311 L17.8264392,22.6759421 C19.3266841,22.5873642 20.7386793,21.878741 21.6211762,20.7715173 C22.6801726,19.5757157 24.4010418,19.309982 25.7689121,20.1071831 C26.3425351,20.4614947 26.7837836,20.8158063 27.269157,21.1258289 C27.8869049,21.5244294 28.3281534,22.1887637 28.4164031,22.9416758 C28.5487776,23.650299 28.3281534,24.3589222 27.8869049,24.8903896 C25.8571618,27.8134603 22.7242975,29.7178851 19.1501847,30.2050635 C19.0178101,30.2050635 18.9295604,30.2050635 18.7971859,30.2050635 L18.7971859,30.2050635 Z M17.2086913,27.0605481 C17.0763168,27.5477266 17.1645665,28.1234829 17.5175652,28.5220835 C17.870564,28.964973 18.4441871,29.1864177 19.0178101,29.0978398 C22.3271738,28.6549503 25.1511642,26.9276813 27.0044079,24.2260554 C27.3574067,23.7831659 27.3574067,23.3845653 27.3132818,23.0745427 C27.2250321,22.6316532 27.0044079,22.2330526 26.6072842,22.0116079 C26.1219109,21.6572963 25.7247873,21.3472736 25.1952891,21.037251 C24.3127921,20.5057836 23.165546,20.6829394 22.4595484,21.4801405 C21.4446769,22.7202311 19.944432,23.5174322 18.2676877,23.7388769 L17.2086913,27.0605481 L17.2086913,27.0605481 Z M10.0163408,27.5034376 C9.35446809,27.5034376 8.7367202,27.2819929 8.207222,26.8833923 L8.16309716,26.8391034 C5.78035528,24.4475001 4.3683601,21.1701179 4.23598555,17.8484466 L4.23598555,17.8041577 L4.23598555,17.7598687 C4.3683601,16.0768887 5.55973104,14.925376 7.19235047,14.925376 C7.85422321,14.925376 8.42784625,14.925376 9.04559414,15.0582428 C10.5017142,15.1911097 11.6489603,16.2540445 11.9137094,17.7155798 C12.1343336,19.2214041 12.7520815,20.5500726 13.7228282,21.3915626 L13.9875773,21.6130073 L12.7962064,25.5990128 C12.4432076,26.4847918 11.7813348,27.1048371 10.854713,27.3705708 C10.545839,27.4591487 10.2810899,27.5034376 10.0163408,27.5034376 L10.0163408,27.5034376 Z M8.86909475,25.9976133 C9.35446809,26.3519249 9.97221598,26.4405028 10.545839,26.307636 C11.1194621,26.1304802 11.5607106,25.7761686 11.73721,25.2447012 L12.7079567,21.9673189 C11.6930851,20.9486731 11.0312124,19.5314267 10.8105881,17.8927356 C10.6340887,17.0955345 9.97221598,16.2540445 8.86909475,16.1654666 L8.8249699,16.1654666 C8.33959655,16.0768887 7.81009836,16.0768887 7.14822562,16.0768887 C6.08922923,16.0768887 5.38323164,16.7412229 5.29498194,17.8484466 C5.42735649,20.8600952 6.70697712,23.8274548 8.86909475,25.9976133 L8.86909475,25.9976133 Z M27.5339061,16.6083561 C27.1367824,16.6083561 26.7837836,16.5197782 26.4307848,16.2983334 C26.077786,16.1211776 25.7247873,15.9440218 25.3717885,15.766866 C24.4451666,15.2796876 23.5626696,14.7925091 22.5477981,14.4824865 L22.5036732,14.4824865 C20.1209314,13.4195517 17.5175652,12.6666396 14.5612003,12.0908832 C13.8993276,12.0023053 13.3698294,11.8694385 12.7962064,11.7365716 L10.1928402,11.426549 C9.35446809,11.38226 8.6484705,10.8065037 8.3837214,9.96501363 C8.07484746,9.07923464 8.33959655,8.10487776 9.04559414,7.48483246 C12.3549579,4.6503397 16.8556925,3.67598281 21.1358029,4.91607339 L21.1358029,4.91607339 C25.3276636,6.24474188 28.4605279,9.43354624 29.6518989,13.6852854 C29.9607728,14.5267754 29.6960237,15.4568434 28.9900261,16.0768887 C28.5929025,16.3869113 28.0634043,16.6083561 27.5339061,16.6083561 L27.5339061,16.6083561 Z M22.9449217,13.4195517 C24.0039181,13.7738633 24.9746648,14.2610417 25.9012866,14.7925091 C26.2542854,14.9696649 26.6072842,15.1468207 26.960283,15.3682655 C27.4897812,15.6782881 28.0192794,15.5011323 28.2840285,15.2353986 C28.4164031,15.1025318 28.8576516,14.7039312 28.5929025,14.039597 L28.5929025,13.995308 C27.4897812,10.0978805 24.6657909,7.17480982 20.7828041,5.97900818 C16.8556925,4.82749549 12.7520815,5.71327448 9.70746689,8.3263225 C9.26621839,8.72492305 9.26621839,9.25639044 9.39859294,9.61070204 C9.53096749,10.0093026 9.88396629,10.3193252 10.2810899,10.3193252 L12.9727057,10.6736368 C13.5463288,10.8065037 14.1199518,10.8950816 14.7818246,11.0279484 C17.7823143,11.5151269 20.4739302,12.312328 22.9449217,13.4195517 L22.9449217,13.4195517 Z"/>
    </g>
    <path fill="#000" d="M14.800703,15.7034399 C4.41812031,12.7289721 1.19289248,4.46170158 0.220906015,0.918585619 C0.132543609,0.262453034 0.751080452,-0.174968689 1.19289248,0.131226517 C3.93212707,1.35600734 10.1174955,4.06802203 16.6563136,5.81770892 C22.0464203,7.34868495 32.0313722,7.69862233 35.1240564,7.78610667 C35.6542309,7.78610667 35.7867745,8.31101274 35.6542309,8.66095012 C34.1078888,11.2417383 28.5852384,18.6779076 14.800703,15.7034399" transform="translate(24.348 37.826)"/>
    <path fill="#FFF" d="M31.5913808,7.99169488 C31.9433739,7.63650844 31.6793791,7.1925254 31.2393877,7.1925254 C26.1794869,7.32572031 20.5915964,6.88173726 14.8717085,5.4165932 C9.01982322,4.08464405 3.21193705,1.42074576 0.879982753,0.310788134 C0.439991377,0.0887966098 0.0879982753,0.532779659 0.219995688,0.976762708 C2.3319543,5.19460167 6.29187669,10.3004067 14.387718,11.5435593 C20.5915964,12.6535169 26.9714714,11.9875423 31.5913808,7.99169488" transform="translate(25.652 40)"/>
    <path fill="#000" d="M0.352514573,3.64372295 L10.5754372,5.35841611 C12.33801,5.65848741 14.1005829,5.22981412 15.5106412,4.41533487 L22.2965467,0 C15.5547055,2.57203973 12.8227176,3.98666159 0.352514573,3.64372295" transform="translate(60.435 11.74)"/>
    <g transform="translate(32.609 63.043)">
      <path fill="#D1B76B" d="M3.06967317,14.5536937 C1.8240087,14.335824 0.934248356,13.3771975 0.845272322,12.1571274 C0.622832238,9.76056104 0.756296289,6.36179425 2.26888887,2.22227059 C2.71376904,1.00220046 3.82596946,0.566461132 4.93816988,0.827904731 L10.1877559,1.48151373 C12.0562526,1.69938339 14.9924617,3.74735826 13.9692373,9.32482171 C13.5243572,11.5906662 12.7235729,13.2464757 11.7448365,14.2051022 C10.6326361,15.2944506 9.52043563,15.2944506 8.71965133,15.1637288 L3.06967317,14.5536937 L3.06967317,14.5536937 Z"/>
      <path fill="#000" d="M9.34248356,15.8173378 C9.03106745,15.8173378 8.80862736,15.7737638 8.67516331,15.7737638 L2.98069714,15.1201548 C1.51259258,14.8587112 0.44488017,13.682215 0.311416119,12.2442752 C-4.20496971e-14,8.93265631 0.489368187,5.53388952 1.77952068,2.09154879 C2.26888887,0.740756864 3.55904136,0.0435739332 5.07163393,0.348591466 L10.2767319,1.00220046 C11.4779084,1.13292226 12.6790848,1.87367913 13.4798691,2.91945352 C14.3251415,4.00880185 15.1704138,6.05677672 14.5475815,9.49911744 C14.1027014,11.8521098 13.3019171,13.5950672 12.1897167,14.6844155 C11.1220042,15.5994681 10.0542918,15.8173378 9.34248356,15.8173378 L9.34248356,15.8173378 Z M3.15864921,14.0308065 L8.80862736,14.6844155 C9.52043563,14.7715634 10.410196,14.7715634 11.3444443,13.8565108 C12.2786927,12.9414582 12.990501,11.3292226 13.4353811,9.23767384 C13.9692373,6.18749851 13.2574291,4.44454119 12.5456208,3.52948859 C11.9227885,2.70158386 11.0330282,2.13512273 10.0987799,2.04797486 L4.84919385,1.39436586 C3.87045748,1.22007013 3.06967317,1.61223553 2.75825705,2.44014026 C1.51259258,5.70818525 1.06771241,8.97623024 1.33464051,12.1135534 C1.51259258,13.07218 2.17991283,13.8565108 3.15864921,14.0308065 L3.15864921,14.0308065 Z"/>
    </g>
    <g transform="translate(0 48.26)">
      <path fill="#D1B76B" d="M12.6017797,2.76851499 C13.489229,3.66158434 13.5779739,5.00118837 12.9567594,6.11752506 C11.6255855,8.1269311 9.54007969,10.9400996 5.76842028,13.2620799 C4.65910869,13.9318819 3.54979709,13.6193076 2.66234782,12.8155452 L1.86364347,12.0117828 C0.532469564,10.6721788 -0.576842028,7.18920828 3.63854202,3.3043566 C5.41344057,1.74148524 6.9664768,0.848415884 8.4307681,0.625148546 C9.98380433,0.401881208 10.8712536,1.07168322 11.5368406,1.60752483 L12.6017797,2.76851499 L12.6017797,2.76851499 Z"/>
      <path fill="#000" d="M4.48161883,14.1551492 C3.72728695,14.1551492 2.9285826,13.842575 2.21862318,13.2174264 L1.41991884,12.413664 C0.532469564,11.5205946 0.0443724637,10.1809906 0.0443724637,8.79673311 C0.0887449274,7.41247562 0.621214492,5.26910917 3.19481739,2.90247539 C5.10283332,1.25029709 6.74461448,0.312574273 8.25327824,0.0893069352 C10.1169217,-0.17861387 11.2262333,0.714455481 11.8030753,1.20564362 L11.8474478,1.25029709 L12.9567594,2.36663378 C14.0216985,3.438317 14.1991884,5.04584184 13.3561116,6.38544586 C11.9361927,8.57346578 9.80631447,11.3419808 5.94591013,13.7086145 C5.54655796,14.0211888 5.0140884,14.1551492 4.48161883,14.1551492 L4.48161883,14.1551492 Z M9.00761013,1.16099016 C8.83012027,1.16099016 8.65263042,1.16099016 8.47514056,1.20564362 C7.18833912,1.42891096 5.72404781,2.23267338 3.99352173,3.75089128 C2.21862318,5.40306958 1.24242898,7.14455481 1.19805652,8.84138658 C1.15368406,10.4489114 1.99676087,11.3866342 2.21862318,11.654555 L3.01732753,12.4583175 C3.54979709,12.9495056 4.43724637,13.3960403 5.45781303,12.8155452 C9.09635505,10.5382183 11.1374884,7.90366376 12.5130348,5.84960425 C13.0455043,4.9565349 12.9567594,3.92950515 12.2468,3.21504967 L11.1374884,2.09871298 C10.5606464,1.56287137 9.93943186,1.16099016 9.00761013,1.16099016 L9.00761013,1.16099016 Z"/>
    </g>
  </g>
</svg>
