<svg xmlns="http://www.w3.org/2000/svg" width="183" height="42" viewBox="0 0 183 42">
  <g fill="none" fill-rule="evenodd">
    <path fill="#D1B76B" d="M31.4558526,37.2811701 C31.2354191,37.2811701 31.1252024,37.2811701 30.970899,37.2369195 L7.3845204,30.6435731 C6.28235318,30.3116932 5.62105284,29.271803 5.77535626,28.1655368 L9.63294154,5.37645362 C9.74315826,4.82332053 10.0738084,4.31443809 10.5808054,4.15956082 L18.9572763,0.508882441 C19.5083599,0.287629206 20.0594435,0.177002588 20.7207438,0.177002588 C21.051394,0.177002588 21.2718274,0.221253235 21.6024776,0.287629206 L44.4614258,4.75694456 C44.6377726,4.75694456 44.6818593,4.86757118 44.6818593,5.02244844 L40.3172771,28.2097875 C40.2070603,28.7629206 39.9866269,29.271803 39.54576,29.7143095 L32.7784533,36.7280371 C32.4478031,37.1041676 32.0069362,37.2811701 31.4558526,37.2811701"/>
    <path fill="#000" d="M13.3362234,0.3761305 L4.95975251,4.02680888 C4.47479893,4.29231276 4.03393204,4.73481923 3.90167197,5.35432829 L0.0661300335,28.1876622 C-0.154303411,29.338179 0.617213646,30.5108211 1.7855109,30.842701 L25.3057595,37.3254208 C26.0111465,37.546674 26.8047069,37.3254208 27.2455738,36.8165383 L34.0790106,29.6921842 C34.4757908,29.2939283 34.7403109,28.7629206 34.8505276,28.1434115 L39.2151098,4.95607247 C39.2591965,4.80119521 39.1048931,4.62419262 38.8844597,4.55781665 C36.4156051,4.11531018 20.7427872,1.08414085 16.0034681,0.132751941 C15.0556043,-0.0663759706 14.1077405,0.0442506471 13.3362234,0.3761305 M31.1472458,11.5494189 L30.3757287,15.3549745 C30.331642,15.6868544 30.7063789,15.9744836 30.970899,15.7532304 C30.970899,15.7532304 34.5419208,13.2088181 34.3876174,13.3194448 L30.1552953,18.1427653 C29.8246451,18.4746451 29.6703417,18.806525 29.6042116,19.1826555 L29.2074314,21.2845612 C29.1633448,21.6164411 29.5380816,21.9040703 29.8246451,21.7270677 C29.8246451,21.7270677 33.7924471,18.806525 33.6161003,18.9614023 L28.9429113,24.4484825 C28.6122611,24.7803623 28.3918277,25.1564928 28.3256977,25.5547487 L27.9950475,27.2805239 C27.9509608,27.6124038 28.2595676,27.900033 28.5902178,27.6787797 C28.5902178,27.6787797 32.4037164,24.9131143 32.3375864,25.0237409 L28.6563478,29.4709309 C27.3337472,30.909077 27.1574004,31.5728367 27.069227,32.2365964 L26.29771,36.108528 C26.1874933,36.5952851 25.8127564,36.8829143 25.3057595,36.7722877 L2.09411773,30.4001945 C1.05808054,30.0683147 0.396780201,29.1169258 0.617213646,28.0106596 L4.47479893,5.13307506 C4.47479893,5.08882441 4.58501565,4.97819779 4.73931907,4.97819779 L30.3095987,10.2882754 C30.3095987,10.2661501 31.3676792,10.5537793 31.1472458,11.5494189 M30.3757287,9.779393 L11.131889,5.73045879 L6.3925699,4.29231276 C6.21622315,4.24806212 6.21622315,4.02680888 6.3925699,3.96043291 L13.7109603,0.81863697 C14.3722606,0.486757118 15.0335609,0.486757118 15.6948613,0.597383735 L37.7382058,4.84544585 C37.9145525,4.84544585 37.9586392,5.11094973 37.7822925,5.24370168 L32.183283,9.38113718 C31.6321993,9.779393 30.970899,9.93427026 30.3757287,9.779393" transform="translate(5.568 .003)"/>
    <path fill="#000" d="M8.31034087,4.8896965 L8.20012415,5.06669909 L8.15603746,5.06669909 C5.73126957,3.40729982 3.57102181,2.52228688 0.484953579,1.85852718 C0.220433445,1.74790056 -1.51337276e-13,1.46027135 0.088173378,1.19476747 L0.1983901,0.641634382 C0.242476789,0.309754529 0.529040268,0.199127912 0.859690435,0.199127912 C3.6151085,0.81863697 5.70922622,1.70364991 7.86947398,3.03116932 C8.48668763,3.3851745 8.70712107,4.27018744 8.31034087,4.8896965" transform="translate(25.583 11.495)"/>
    <path fill="#000" d="M23.8949854,7.03585288 C22.7928182,11.8591734 19.3760998,11.7927974 16.7308985,11.4166669 C14.2620439,11.0847871 12.9835299,9.53601444 12.542663,7.61111129 C12.3663163,7.12435418 12.2120128,6.61547173 11.771146,6.50484512 L10.7351088,6.17296526 C10.2942419,6.06233865 9.74315826,6.28359188 9.4125081,6.65972238 C8.08990743,8.16424438 6.17213646,9.04925732 4.29845218,8.47399891 C0.925820469,7.41198338 0.044086689,4.8896965 0.330650167,1.94702847 L23.8949854,7.03585288 M8.90551117,1.10626618 L8.72916442,1.65939926 C8.68507773,1.8806525 8.46464428,1.99127912 8.24421084,1.99127912 C4.89362248,1.59302329 0.1983901,1.8806525 0.1983901,1.8806525 C0.1983901,1.8806525 -0.0661300335,0.663759706 1.41077405,0.221253235 C3.83554194,1.97064587e-15 5.70922622,0.0663759706 8.46464428,0.486757118 C8.79529445,0.553133088 8.97164121,0.885012941 8.90551117,1.10626618" transform="translate(9.884 9.454)"/>
    <g transform="translate(1.763 24.78)">
      <path fill="#5070B2" d="M11.0878023,0.81863697 C6.67913338,-0.508882441 2.11616107,1.8806525 0.727430368,6.23934123 C-0.551083612,10.6201553 1.82959759,15.2000973 6.17213646,16.5276167 C10.5146753,17.8993867 15.1437777,15.4656011 16.4663783,11.1069124 C17.8110223,6.72609835 15.4303411,2.14615638 11.0878023,0.81863697 M10.4705886,2.69928947 C12.5647064,3.36304918 13.9975238,4.95607247 14.5486074,6.90310094 C14.8131275,7.61111129 13.9975238,8.274871 13.3362234,7.8987405 C12.6749231,7.56686065 12.0577094,7.19073015 11.3523224,6.96947691 C10.0738084,6.41634382 8.75120776,6.04021332 7.31839037,5.75258412 C6.9877402,5.70833347 6.70117672,5.6419575 6.43665659,5.57558153 L5.11405592,5.39857894 C4.4086689,5.35432829 4.12210542,4.40293938 4.67318903,3.89405694 C6.23826649,2.58866285 8.37647091,2.07978041 10.4705886,2.69928947 M3.59306515,7.72173791 C3.92371532,7.72173791 4.18823545,7.72173791 4.47479893,7.76598856 C5.13609927,7.8102392 5.57696616,8.31912165 5.68718288,8.87225473 C5.7973996,9.64664106 6.12804977,10.3767767 6.67913338,10.8635339 L6.12804977,12.6778104 C5.86352963,13.3858207 4.91566582,13.6734499 4.25436549,13.1645675 C3.15219826,12.0583013 2.44681124,10.5095287 2.3806812,8.85012941 C2.42476789,8.16424438 2.93176482,7.72173791 3.59306515,7.72173791 M8.33238422,13.4300714 L8.94959786,11.6157949 C9.78724495,11.5715442 10.5367187,11.1732884 11.0437156,10.5537793 C11.4845825,10.0670222 12.1899695,9.93427026 12.7630965,10.2882754 C13.0276166,10.465278 13.24805,10.6201553 13.4684835,10.7750326 C13.9534371,11.1069124 14.1297838,11.7706721 13.7330036,12.2795546 C12.7410531,13.7177006 11.264149,14.6027135 9.54476816,14.8239668 C8.70712107,14.9124681 8.11195077,14.1380817 8.33238422,13.4300714"/>
      <path fill="#2F4155" d="M8.66303438,17.1913764 C7.80334395,17.1913764 6.92161017,17.0586244 6.08396308,16.7931206 C1.5871208,15.4213505 -0.88173378,10.7529072 0.44086689,6.17296526 C1.87368428,1.63727394 6.56891666,-0.81863697 11.1539323,0.575258412 L11.1539323,0.575258412 C15.6066879,1.92490315 18.0975858,6.70397303 16.7308985,11.217539 C16.0695981,13.3858207 14.5926941,15.1779719 12.5867497,16.2399875 C11.3743658,16.8594965 10.0297217,17.1913764 8.66303438,17.1913764 L8.66303438,17.1913764 Z M8.59690435,0.730135676 C5.18018595,0.730135676 2.07207438,2.89841738 0.991950502,6.32784253 C-0.242476789,10.6201553 2.07207438,14.978844 6.26030983,16.2621128 C8.31034087,16.9037472 10.4705886,16.7267446 12.3663163,15.731105 C14.2400005,14.7354655 15.6066879,13.0760662 16.2239015,11.0405364 C17.5024155,6.81459965 15.165821,2.36740962 10.9996289,1.10626618 C10.2060685,0.840762294 9.39046475,0.730135676 8.59690435,0.730135676 L8.59690435,0.730135676 Z M9.39046475,15.0894706 C8.99368455,15.0894706 8.59690435,14.9124681 8.33238422,14.6027135 C8.02377739,14.2487084 7.93560402,13.7840766 8.06786408,13.3415701 L8.06786408,13.3415701 L8.72916442,11.350291 L8.90551117,11.3281656 C9.65498489,11.283915 10.3603719,10.9299098 10.8012388,10.3767767 C11.3302791,9.779393 12.1899695,9.64664106 12.8733132,10.0448969 C13.1598767,10.2218995 13.3803101,10.3989021 13.6227869,10.5537793 C13.9313937,10.7529072 14.1518272,11.0847871 14.1959139,11.4609176 C14.2620439,11.8149228 14.1518272,12.1689279 13.9313937,12.4344318 C12.9173999,13.8947032 11.3523224,14.8460921 9.56681151,15.0894706 C9.50068147,15.0894706 9.45659479,15.0894706 9.39046475,15.0894706 L9.39046475,15.0894706 Z M8.59690435,13.5185727 C8.53077432,13.7619512 8.57486101,14.0495804 8.75120776,14.2487084 C8.92755452,14.4699616 9.214118,14.5805882 9.50068147,14.5363376 C11.1539323,14.3150843 12.5647064,13.4521967 13.4905268,12.102552 C13.6668736,11.8812987 13.6668736,11.6821708 13.6448302,11.5272936 C13.6007435,11.3060403 13.4905268,11.1069124 13.2921367,10.9962858 C13.0496599,10.8192832 12.8512698,10.6644059 12.5867497,10.5095287 C12.1458828,10.2440248 11.5727559,10.3325261 11.2200623,10.7307819 C10.7130654,11.350291 9.96359171,11.7485468 9.12594462,11.8591734 L8.59690435,13.5185727 L8.59690435,13.5185727 Z M5.0038392,13.7398259 C4.67318903,13.7398259 4.36458221,13.6291993 4.10006207,13.4300714 L4.07801873,13.4079461 C2.88767813,12.2131786 2.1822911,10.5759046 2.11616107,8.91650538 L2.11616107,8.89438006 L2.11616107,8.87225473 C2.1822911,8.03149244 2.77746141,7.45623403 3.59306515,7.45623403 C3.92371532,7.45623403 4.2102788,7.45623403 4.51888562,7.52261 C5.24631599,7.58898597 5.81944294,8.11999373 5.95170301,8.85012941 C6.06191973,9.60239041 6.37052656,10.2661501 6.85548014,10.6865313 L6.9877402,10.7971579 L6.3925699,12.788437 C6.21622315,13.2309435 5.88557298,13.540698 5.42266274,13.6734499 C5.26835933,13.7177006 5.13609927,13.7398259 5.0038392,13.7398259 L5.0038392,13.7398259 Z M4.43071224,12.9875649 C4.67318903,13.1645675 4.98179585,13.2088181 5.26835933,13.1424422 C5.55492281,13.0539409 5.77535626,12.8769383 5.86352963,12.6114344 L6.34848321,10.9741605 C5.84148629,10.465278 5.51083612,9.75726768 5.4006194,8.9386307 C5.31244602,8.54037488 4.98179585,8.11999373 4.43071224,8.07574309 L4.4086689,8.07574309 C4.16619211,8.03149244 3.90167197,8.03149244 3.57102181,8.03149244 C3.04198154,8.03149244 2.68928803,8.36337229 2.64520134,8.91650538 C2.71133137,10.4210274 3.35058836,11.9034241 4.43071224,12.9875649 L4.43071224,12.9875649 Z M13.755047,8.29699632 C13.5566569,8.29699632 13.3803101,8.25274568 13.2039633,8.14211906 C13.0276166,8.05361776 12.8512698,7.96511647 12.6749231,7.87661518 C12.2120128,7.63323662 11.771146,7.38985806 11.264149,7.23498079 L11.2421057,7.23498079 C10.0517651,6.70397303 8.75120776,6.32784253 7.27430368,6.04021332 C6.94365351,5.99596268 6.67913338,5.92958671 6.3925699,5.86321073 L5.09201258,5.70833347 C4.67318903,5.68620815 4.32049552,5.39857894 4.18823545,4.97819779 C4.03393204,4.53569132 4.16619211,4.04893421 4.51888562,3.73917968 C6.17213646,2.32315897 8.42055759,1.83640185 10.558762,2.45591091 L10.558762,2.45591091 C12.6528797,3.11967062 14.2179572,4.71269391 14.8131275,6.83672497 C14.9674309,7.25710612 14.8351708,7.72173791 14.4824773,8.03149244 C14.2840872,8.1863697 14.0195671,8.29699632 13.755047,8.29699632 L13.755047,8.29699632 Z M11.4625391,6.70397303 C11.9915794,6.88097562 12.476533,7.12435418 12.9394432,7.38985806 C13.11579,7.47835935 13.2921367,7.56686065 13.4684835,7.67748726 C13.7330036,7.83236453 13.9975238,7.74386323 14.1297838,7.61111129 C14.1959139,7.54473532 14.4163473,7.34560741 14.2840872,7.01372756 L14.2840872,6.99160223 C13.7330036,5.04457376 12.3222296,3.58430241 10.3824153,2.98691868 C8.42055759,2.41166026 6.37052656,2.85416673 4.84953579,4.15956082 C4.62910234,4.35868873 4.62910234,4.62419262 4.69523238,4.80119521 C4.76136241,5.00032312 4.93770917,5.15520038 5.13609927,5.15520038 L6.48074328,5.33220297 C6.76730676,5.39857894 7.05387024,5.44282959 7.3845204,5.50920556 C8.88346783,5.75258412 10.2281118,6.15083994 11.4625391,6.70397303 L11.4625391,6.70397303 Z"/>
    </g>
    <path fill="#000" d="M7.3845204,7.94299115 C2.20433445,6.43846915 0.595170301,2.256783 0.110216722,0.464631794 C0.0661300335,0.132751941 0.374736856,-0.0885012941 0.595170301,0.0663759706 C1.96185766,0.685885029 5.04792589,2.05765509 8.31034087,2.94266803 C10.9996289,3.71705435 15.9814248,3.89405694 17.5244589,3.93830759 C17.788979,3.93830759 17.855109,4.20381147 17.788979,4.38081406 C17.0174619,5.68620815 14.2620439,9.44751315 7.3845204,7.94299115" transform="translate(12.173 18.956)"/>
    <path fill="#FFF" d="M15.8271213,3.98255823 C16.0034681,3.80555565 15.871208,3.58430241 15.6507746,3.58430241 C13.11579,3.65067838 10.3162852,3.42942515 7.45065044,2.69928947 C4.51888562,2.03552976 1.60916415,0.708010353 0.44086689,0.154877265 C0.220433445,0.0442506471 0.044086689,0.265503882 0.110216722,0.486757118 C1.16829726,2.58866285 3.15219826,5.13307506 7.20817365,5.75258412 C10.3162852,6.3057172 13.5125702,5.97383735 15.8271213,3.98255823" transform="translate(12.91 20.08)"/>
    <path fill="#000" d="M0.176346756,1.8806525 L5.29040268,2.76566544 C6.17213646,2.92054271 7.05387024,2.69928947 7.75925726,2.27890832 L11.1539323,0 C7.7813006,1.32751941 6.41461325,2.05765509 0.176346756,1.8806525" transform="translate(30.187 5.844)"/>
    <g transform="translate(16.312 31.64)">
      <path fill="#D1B76B" d="M1.52099077,7.38985806 C0.903777124,7.27923144 0.462910234,6.79247432 0.418823545,6.17296526 C0.308606823,4.95607247 0.374736856,3.23029723 1.12421057,1.1283915 C1.34464401,0.508882441 1.89572763,0.287629206 2.44681124,0.420381147 L5.04792589,0.752261 C5.97374636,0.862887618 7.42860709,1.90277782 6.92161017,4.73481923 C6.70117672,5.88533606 6.30439652,6.72609835 5.81944294,7.21285547 C5.26835933,7.76598856 4.71727572,7.76598856 4.32049552,7.69961259 L1.52099077,7.38985806 L1.52099077,7.38985806 Z"/>
      <path fill="#000" d="M4.62910234,8.03149244 C4.47479893,8.03149244 4.36458221,8.00936712 4.29845218,8.00936712 L1.47690408,7.67748726 C0.749473713,7.54473532 0.220433445,6.94735159 0.154303411,6.21721591 C-1.97480921e-14,4.53569132 0.242476789,2.80991609 0.88173378,1.06201553 C1.12421057,0.3761305 1.76346756,0.0221253235 2.51294127,0.177002588 L5.09201258,0.508882441 C5.68718288,0.575258412 6.28235318,0.951388912 6.67913338,1.48239668 C7.09795693,2.03552976 7.51678047,3.07541997 7.20817365,4.82332053 C6.9877402,6.018088 6.59096,6.90310094 6.03987639,7.45623403 C5.51083612,7.92086582 4.98179585,8.03149244 4.62910234,8.03149244 L4.62910234,8.03149244 Z M1.56507746,7.12435418 L4.36458221,7.45623403 C4.71727572,7.50048468 5.15814261,7.50048468 5.62105284,7.03585288 C6.08396308,6.57122109 6.43665659,5.75258412 6.65709004,4.69056859 C6.92161017,3.14179594 6.56891666,2.256783 6.21622315,1.79215121 C5.90761632,1.37177006 5.46674943,1.08414085 5.0038392,1.03989021 L2.40272455,0.708010353 C1.91777097,0.619509059 1.52099077,0.81863697 1.36668736,1.23901812 C0.749473713,2.89841738 0.529040268,4.55781665 0.661300335,6.15083994 C0.749473713,6.63759706 1.08012388,7.03585288 1.56507746,7.12435418 L1.56507746,7.12435418 Z"/>
    </g>
    <g transform="translate(0 24.117)">
      <path fill="#D1B76B" d="M6.26030983,1.37177006 C6.70117672,1.81427653 6.74526341,2.47803623 6.43665659,3.03116932 C5.77535626,4.02680888 4.73931907,5.42070426 2.86563478,6.57122109 C2.31455117,6.90310094 1.76346756,6.74822368 1.32260067,6.34996785 L0.925820469,5.95171203 C0.264520134,5.28795232 -0.286563478,3.56217709 1.80755425,1.63727394 C2.68928803,0.862887618 3.46080508,0.420381147 4.18823545,0.309754529 C4.95975251,0.199127912 5.4006194,0.531007765 5.73126957,0.796511647 L6.26030983,1.37177006 L6.26030983,1.37177006 Z"/>
      <path fill="#000" d="M2.22637779,7.01372756 C1.85164094,7.01372756 1.45486074,6.85885029 1.10216722,6.54909576 L0.705387024,6.15083994 C0.264520134,5.70833347 0.0220433445,5.04457376 0.0220433445,4.35868873 C0.044086689,3.67280371 0.308606823,2.61078818 1.5871208,1.43814603 C2.53498462,0.619509059 3.35058836,0.154877265 4.10006207,0.0442506471 C5.02588254,-0.0885012941 5.57696616,0.354005176 5.86352963,0.597383735 L5.88557298,0.619509059 L6.43665659,1.17264215 C6.96569686,1.70364991 7.05387024,2.50016156 6.63504669,3.16392126 C5.92965967,4.24806212 4.87157913,5.61983218 2.95380816,6.79247432 C2.75541806,6.94735159 2.49089793,7.01372756 2.22637779,7.01372756 L2.22637779,7.01372756 Z M4.47479893,0.575258412 C4.38662555,0.575258412 4.29845218,0.575258412 4.2102788,0.597383735 C3.57102181,0.708010353 2.84359144,1.10626618 1.983901,1.85852718 C1.10216722,2.67716415 0.617213646,3.54005176 0.595170301,4.38081406 C0.573126957,5.17732571 0.991950502,5.6419575 1.10216722,5.77470944 L1.49894743,6.17296526 C1.76346756,6.41634382 2.20433445,6.63759706 2.71133137,6.34996785 C4.51888562,5.22157635 5.53287947,3.91618226 6.21622315,2.89841738 C6.48074328,2.45591091 6.43665659,1.94702847 6.08396308,1.59302329 L5.53287947,1.03989021 C5.24631599,0.774386323 4.93770917,0.575258412 4.47479893,0.575258412 L4.47479893,0.575258412 Z"/>
    </g>
    <g fill="#5070B2" transform="translate(48.659)">
      <path d="M26.2010335,16.6385369 C26.8459966,16.6385369 27.1684781,16.8651135 27.1039818,17.447739 L26.7815003,19.2603517 C26.717004,19.7458729 26.4590188,19.9077133 25.9752965,19.9077133 L15.6236394,19.9077133 C15.1399171,19.9077133 15.0431726,19.6811367 15.1399171,19.2603517 L17.4940322,5.76286079 C17.5585285,5.43917995 17.8165138,5.18023529 18.3002361,5.18023529 L28.0714264,5.18023529 C28.5551487,5.18023529 28.6518932,5.43917995 28.5551487,5.76286079 L28.2326672,7.73731389 C28.1359227,8.22283514 27.7489449,8.48177981 27.0072374,8.48177981 L20.5253586,8.48177981 L20.2028771,10.9417542 L26.297778,10.9417542 C26.7815003,10.9417542 26.7815003,11.3301712 26.7815003,11.5891158 L26.5235151,12.8838392 C26.4590188,13.4664647 26.1365372,13.3693604 25.3948297,13.3693604 L19.6869066,13.3693604 L19.0419436,16.6385369 L26.2010335,16.6385369 Z M53.0637449,16.6385369 C53.708708,16.6385369 54.0634377,16.8651135 53.9989414,17.447739 L53.6764599,19.2603517 C53.6119635,19.7458729 53.3539783,19.9077133 52.870256,19.9077133 L42.5185989,19.9077133 C42.0348766,19.9077133 41.9381322,19.6811367 42.0348766,19.2603517 L44.3889918,5.76286079 C44.4534881,5.43917995 44.7114733,5.18023529 45.1951956,5.18023529 L54.966386,5.18023529 C55.4501083,5.18023529 55.5468527,5.43917995 55.4501083,5.76286079 L55.1276267,7.73731389 C55.0308823,8.22283514 54.6439044,8.48177981 53.9021969,8.48177981 L47.38807,8.48177981 L47.0655885,10.9417542 L53.1604894,10.9417542 C53.6442117,10.9417542 53.6442117,11.3301712 53.6442117,11.5891158 L53.3862265,12.8838392 C53.3217302,13.4664647 52.9992486,13.3693604 52.2575411,13.3693604 L46.5496181,13.3693604 L45.904655,16.6385369 L53.0637449,16.6385369 Z M114.893967,16.4652705 L114.635982,16.4652705 C115.119704,16.4652705 115.474434,16.6918471 115.377689,17.2744726 L115.055208,19.0870853 C114.990712,19.5726066 114.732726,19.734447 114.249004,19.734447 L103.994091,19.734447 C103.510369,19.734447 103.413625,19.5078704 103.510369,19.0870853 L105.864484,5.58959444 C105.928981,5.2659136 106.186966,5.00696893 106.670688,5.00696893 L116.538623,5.00696893 C117.022345,5.00696893 117.11909,5.2659136 117.022345,5.58959444 L116.699864,7.56404754 C116.603119,8.04956879 116.216141,8.30851346 115.474434,8.30851346 L108.960307,8.30851346 L108.637825,10.7684878 L114.732726,10.7684878 C115.216449,10.7684878 115.216449,11.1569048 115.216449,11.4158495 L114.958463,12.7105728 C114.893967,13.2931983 114.571486,13.1960941 113.829778,13.1960941 L108.121855,13.1960941 L107.476892,16.4652705 L114.893967,16.4652705 Z M38.8059658,12.4237269 C39.9346512,12.9416162 40.3538772,13.7508183 40.1926364,15.3368544 C39.5476733,18.7678713 36.7743322,19.836018 33.6785095,19.836018 C30.7761757,19.836018 28.5510532,17.9586692 28.9702792,15.6605352 C29.0347755,15.175014 29.1960162,14.8513331 29.6152422,14.8513331 L31.679124,14.8513331 C32.0016056,14.8513331 32.1628463,15.2397501 32.1628463,15.6605352 C32.3240871,16.7934182 33.6462614,17.2142032 34.2912244,17.2142032 C35.3554135,17.2142032 36.4840988,16.7934182 36.742084,15.6605352 C36.9033248,14.3334438 36.097121,14.009763 34.5492096,14.009763 L33.581765,14.009763 C33.0980428,14.009763 32.936802,13.621346 33.0980428,13.2005609 L33.356028,11.5497886 C33.4205243,11.2261078 33.581765,10.8053227 34.000991,10.8053227 L35.0651801,10.8053227 C36.4518507,10.8053227 37.0968137,10.4816419 37.3547989,9.57533552 C37.6772805,8.24824409 36.5485951,7.92456325 35.6456468,7.92456325 C34.9039393,7.92456325 33.775254,7.92456325 33.356028,8.99271001 C33.1947872,9.25165468 33.1302909,9.15455043 32.7110649,9.15455043 L30.7439276,9.15455043 C30.3247016,9.15455043 30.1634608,9.2192866 30.3247016,8.73376534 C30.6471831,6.53273566 33.356028,5.14090806 36.1938654,5.14090806 C39.2896881,5.14090806 41.4825625,6.69457608 40.9988402,9.8019121 C40.8375995,11.1290035 39.7734104,12.1647822 38.8059658,12.4237269 Z M58.3900756,5.23684706 C58.5190682,5.23684706 68.9674698,5.23684706 68.9674698,5.20447898 C69.4511921,5.20447898 69.5479366,5.46342365 69.4511921,5.9489449 L69.1287106,7.923398 C69.0642143,8.24707884 68.806229,8.40891926 68.3225067,8.40891926 L64.8074581,8.40891926 L62.9370652,19.1874911 C62.8725689,19.6730124 62.6145837,19.8348528 62.1308614,19.8348528 L59.8412425,19.8348528 C59.518761,19.8348528 59.2607758,19.6730124 59.3575202,19.1874911 L61.3246575,8.40891926 L57.7451126,8.40891926 C57.2613903,8.40891926 57.1001495,8.24707884 57.2613903,7.76155758 L57.5838718,5.88420874 C57.6483681,5.5605279 57.9063533,5.23684706 58.3900756,5.23684706 Z M54.3491241,2.71064761 L47.3512749,2.64591144 C47.1900341,2.64591144 47.0932897,2.61354336 47.0932897,2.54880719 C47.0932897,2.32223061 47.2545304,2.28986252 47.577012,2.19275827 L54.6716056,0.315409424 C54.8328464,0.250673257 54.9940871,0.250673257 55.1553279,0.412513675 C55.2520724,0.574354093 55.2520724,0.63909026 55.2520724,0.898034929 L54.9940871,2.45170294 C54.9295908,2.80775186 54.6716056,2.71064761 54.3491241,2.71064761 Z M96.9938558,8.18493212 C95.5426889,8.18493212 94.3817554,8.99413421 94.285011,10.5801703 L93.4788071,14.9822297 C93.3175664,16.2122169 94.1560183,17.0214189 95.6071852,17.0214189 C96.832615,17.0214189 97.8000596,16.6330019 98.2192856,15.5648552 C98.3805264,14.9822297 98.4772708,14.6585488 98.9609931,14.6585488 L101.153868,14.6585488 C101.476349,14.6585488 101.734334,14.9822297 101.63759,15.4677509 C101.057123,18.1543019 97.7355633,19.9669145 94.9622222,19.9669145 C92.3501218,19.9669145 89.2542991,18.4132465 89.8347659,15.0469658 L90.7377141,9.96517672 C91.8019032,6.0486386 94.9622222,5.23943651 97.5743226,5.23943651 C100.347664,5.23943651 102.959764,6.53415985 102.701779,9.31781504 C102.540538,9.70623205 102.379297,9.96517672 101.895575,9.96517672 L99.7027007,9.96517672 C99.2189784,9.96517672 99.2189784,9.47965546 99.1222339,9.15597463 C98.8642487,8.50861295 98.2192856,8.18493212 96.9938558,8.18493212 Z M133.678742,5.13249236 C133.678742,5.13249236 134.033472,5.0677562 133.936727,5.87695829 L131.647108,19.1155045 C131.485867,19.69813 131.26013,19.8599704 130.840904,19.8599704 L128.390045,19.8599704 C128.067563,19.8599704 127.809578,19.6010257 127.906323,19.1155045 L129.292993,11.6061091 L126.358411,15.3608068 C126.19717,15.5226472 125.939185,15.7815919 125.616704,15.7815919 L124.488018,15.7815919 C124.262281,15.7815919 124.165537,15.6197514 124.004296,15.3608068 L122.35964,11.6061091 L121.069714,19.1155045 C120.908473,19.69813 120.682736,19.8599704 120.26351,19.8599704 L117.973891,19.8599704 C117.586914,19.8599704 117.393425,19.6010257 117.490169,19.1155045 L119.779788,5.77985403 C119.844284,5.4561732 120.10227,5.13249236 120.585992,5.13249236 L122.875611,5.13249236 C123.456077,5.13249236 123.617318,5.55327745 123.778559,5.87695829 L125.971433,11.3471644 L130.034701,5.87695829 C130.260438,5.71511787 130.518423,5.13249236 131.163386,5.13249236 L133.678742,5.13249236 Z M14.2538668,9.20834619 C13.9313853,11.441744 12.2222332,12.3156822 11.964248,12.3156822 C12.189985,12.4775226 13.8991371,13.3190928 13.4154148,15.6819629 C12.9316925,18.4008819 10.4808329,19.8574457 7.22376948,19.8574457 L0.548401814,19.8574457 C0.0646795201,19.8574457 -0.0965612447,19.598501 0.0646795201,19.1129798 L2.35429838,5.87443357 C2.41879469,5.55075274 2.67677991,5.12996765 3.1605022,5.12996765 L9.6101328,5.12996765 C13.2864222,5.12996765 14.6730928,7.07205267 14.2538668,9.20834619 Z M10.287344,14.8727608 C10.287344,14.8727608 10.287344,13.7075098 8.48144744,13.6427736 L4.48267648,13.6427736 L3.99895418,16.5882692 L7.99772515,16.5882692 C9.54563649,16.5882692 10.287344,16.1674842 10.287344,14.8727608 Z M8.64268821,10.8591184 C10.6098255,10.8591184 10.6743218,9.53202702 10.6098255,9.53202702 C10.6743218,8.56098451 10.0293588,8.23730368 8.96516974,8.23730368 L5.45012106,8.23730368 L4.96639877,10.8591184 L8.64268821,10.8591184 Z M88.3923705,9.20834619 C88.0698889,11.441744 86.3607368,12.3156822 86.1349998,12.3156822 C86.3607368,12.4775226 88.1666334,13.3190928 87.5861666,15.6819629 C87.1024443,18.4008819 84.6515847,19.8574457 81.3945213,19.8574457 L74.7191536,19.8574457 C74.2354313,19.8574457 74.0741906,19.598501 74.2354313,19.1129798 L76.5895465,5.87443357 C76.6540428,5.55075274 76.912028,5.12996765 77.3957503,5.12996765 L83.7486364,5.12996765 C87.4249259,5.12996765 88.8115965,7.07205267 88.3923705,9.20834619 Z M84.3935995,14.8727608 C84.3935995,14.8727608 84.3935995,13.7075098 82.5877029,13.6427736 L78.588932,13.6427736 L78.1052097,16.5882692 L82.1039806,16.5882692 C83.651892,16.5882692 84.3935995,16.1674842 84.3935995,14.8727608 Z M82.7489437,10.8591184 C84.716081,10.8591184 84.8128255,9.53202702 84.8128255,9.53202702 C84.8773218,8.56098451 84.2323587,8.23730368 83.1681697,8.23730368 L79.5563766,8.23730368 L79.0726543,10.8591184 L82.7489437,10.8591184 Z"/>
    </g>
    <path fill="#606877" d="M52.1959899,24.6600434 L51.5265986,28.5854859 C51.4301838,29.2658994 51.1498962,29.8016825 50.6857275,30.1928513 C50.2215588,30.5840202 49.6368803,30.7740924 48.9316745,30.7630735 C48.4936756,30.7548094 48.1135312,30.660462 47.7912301,30.4800285 C47.468929,30.2995949 47.2313388,30.044788 47.0784524,29.7156002 C46.925566,29.3864123 46.8739159,29.0110886 46.9235007,28.589618 L47.592892,24.6600434 L49.0143154,24.6600434 L48.3490562,28.59375 C48.3325279,28.7314855 48.3297732,28.8623323 48.3407921,28.9862943 C48.3545656,29.1901428 48.4186117,29.3485363 48.5329322,29.4614794 C48.6472526,29.5744225 48.8090895,29.6350252 49.0184474,29.6432894 C49.6244837,29.6625724 49.9894773,29.3113521 50.1134393,28.589618 L50.7828306,24.6600434 L52.1959899,24.6600434 Z M54.4016754,30.6763006 L52.9885161,30.6763006 L54.0339234,24.6600434 L55.4429507,24.6600434 L54.4016754,30.6763006 Z M61.6063087,28.4532605 L60.8708048,29.143312 L60.6022219,30.6763006 L59.1890625,30.6763006 L60.2303378,24.6600434 L61.6476292,24.6600434 L61.1972363,27.2343073 L61.7839867,26.5194635 L63.3458996,24.6600434 L65.1805275,24.6600434 L62.6847724,27.3830609 L64.0690074,30.6763006 L62.4533779,30.6763006 L61.6063087,28.4532605 Z M66.8366511,30.6763006 L65.4234917,30.6763006 L66.4688991,24.6600434 L67.8779264,24.6600434 L66.8366511,30.6763006 Z M74.0090544,25.7798275 L72.2570674,25.7798275 L71.4099983,30.6763006 L69.9927069,30.6763006 L70.8439081,25.7798275 L69.1208454,25.7798275 L69.3191836,24.6600434 L74.2032605,24.6600434 L74.0090544,25.7798275 Z M80.6228054,29.0482749 C80.683409,28.7369927 80.5153742,28.4959591 80.1186959,28.3251671 L79.4410406,28.044188 C78.4906655,27.6172079 78.0388998,27.0359728 78.0857299,26.3004651 C78.1050128,25.9643905 78.2207089,25.6648202 78.4328216,25.4017454 C78.6449343,25.1386706 78.9383066,24.9341364 79.3129472,24.7881367 C79.6875878,24.6421371 80.0966561,24.571893 80.5401645,24.5774025 C81.1351819,24.5884213 81.6138056,24.7619654 81.97605,25.0980401 C82.3382944,25.4341148 82.5166593,25.8845031 82.5111498,26.4492187 L81.1062546,26.4492187 C81.1145187,26.2178231 81.0656234,26.0325716 80.959567,25.8934587 C80.8535107,25.7543459 80.6792779,25.6820358 80.4368633,25.6765264 C80.1999583,25.671017 79.9906034,25.7261103 79.8087925,25.8418082 C79.6269817,25.957506 79.5195496,26.1131448 79.486493,26.3087292 C79.4341535,26.5842003 79.6386877,26.8100831 80.1001017,26.9863846 C80.5615157,27.162686 80.8968966,27.3141928 81.1062546,27.4409095 C81.7646304,27.8348331 82.0731533,28.3664842 82.0318326,29.0358788 C82.009795,29.3829723 81.8982309,29.6873632 81.697137,29.9490607 C81.4960432,30.2107582 81.2171329,30.4132263 80.8603979,30.5564713 C80.503663,30.6997162 80.1035473,30.7685829 79.6600389,30.7630735 C79.3349831,30.7575641 79.0333469,30.7066027 78.7551211,30.6101879 C78.4768954,30.513773 78.2386165,30.3732849 78.0402774,30.1887193 C77.6380897,29.8168334 77.4452628,29.3278797 77.4617911,28.7218434 L78.8790825,28.7259754 C78.8625542,29.034503 78.9217796,29.2679612 79.0567604,29.426357 C79.1917412,29.5847529 79.4190014,29.6639496 79.7385478,29.6639496 C79.9754529,29.6639496 80.1731004,29.6095449 80.3314962,29.5007338 C80.489892,29.3919228 80.5869941,29.2411046 80.6228054,29.0482749 Z M86.0473538,27.2632316 L87.5679463,24.6600434 L89.1587835,24.6600434 L86.5638594,28.5813539 L86.2043715,30.6763006 L84.7664199,30.6763006 L85.1548321,28.4449964 L83.9524071,24.6641754 L85.423415,24.6600434 L86.0473538,27.2632316 Z M92.6247427,29.0482749 C92.6853463,28.7369927 92.5173115,28.4959591 92.1206332,28.3251671 L91.4429779,28.044188 C90.4926028,27.6172079 90.0408371,27.0359728 90.0876672,26.3004651 C90.1069502,25.9643905 90.2226463,25.6648202 90.434759,25.4017454 C90.6468717,25.1386706 90.9402439,24.9341364 91.3148845,24.7881367 C91.6895251,24.6421371 92.0985935,24.571893 92.5421018,24.5774025 C93.1371192,24.5884213 93.615743,24.7619654 93.9779874,25.0980401 C94.3402318,25.4341148 94.5185966,25.8845031 94.5130872,26.4492187 L93.1081919,26.4492187 C93.1164561,26.2178231 93.0675607,26.0325716 92.9615044,25.8934587 C92.855448,25.7543459 92.6812152,25.6820358 92.4388007,25.6765264 C92.2018956,25.671017 91.9925408,25.7261103 91.8107299,25.8418082 C91.628919,25.957506 91.5214869,26.1131448 91.4884304,26.3087292 C91.4360909,26.5842003 91.6406251,26.8100831 92.102039,26.9863846 C92.563453,27.162686 92.898834,27.3141928 93.1081919,27.4409095 C93.7665677,27.8348331 94.0750906,28.3664842 94.03377,29.0358788 C94.0117323,29.3829723 93.9001682,29.6873632 93.6990744,29.9490607 C93.4979805,30.2107582 93.2190703,30.4132263 92.8623353,30.5564713 C92.5056003,30.6997162 92.1054846,30.7685829 91.6619763,30.7630735 C91.3369205,30.7575641 91.0352842,30.7066027 90.7570585,30.6101879 C90.4788327,30.513773 90.2405539,30.3732849 90.0422147,30.1887193 C89.640027,29.8168334 89.4472002,29.3278797 89.4637284,28.7218434 L90.8810198,28.7259754 C90.8644915,29.034503 90.9237169,29.2679612 91.0586977,29.426357 C91.1936785,29.5847529 91.4209387,29.6639496 91.7404851,29.6639496 C91.9773902,29.6639496 92.1750377,29.6095449 92.3334335,29.5007338 C92.4918294,29.3919228 92.5889315,29.2411046 92.6247427,29.0482749 Z M100.784705,25.7798275 L99.0327178,25.7798275 L98.1856486,30.6763006 L96.7683572,30.6763006 L97.6195585,25.7798275 L95.8964958,25.7798275 L96.0948339,24.6600434 L100.978911,24.6600434 L100.784705,25.7798275 Z M105.477881,28.1268289 L103.267237,28.1268289 L103.015183,29.5606485 L105.630767,29.5606485 L105.436561,30.6763006 L101.407817,30.6763006 L102.449092,24.6600434 L106.4861,24.6600434 L106.291894,25.7798275 L103.672178,25.7798275 L103.449047,27.0483652 L105.663823,27.0483652 L105.477881,28.1268289 Z M109.766117,24.6600434 L110.340472,28.8334086 L112.356909,24.6600434 L114.241122,24.6600434 L113.199847,30.6763006 L111.778423,30.6763006 L112.03461,29.2011606 L112.646153,26.4822751 L110.53881,30.6763006 L109.600836,30.6763006 L108.919048,26.3252574 L108.5389,29.3416501 L108.303374,30.6763006 L106.890214,30.6763006 L107.931489,24.6600434 L109.766117,24.6600434 Z"/>
  </g>
</svg>
