<?xml version="1.0" encoding="UTF-8" standalone="no"?>
<svg width="116px" height="19px" viewBox="0 0 116 19" version="1.1" xmlns="http://www.w3.org/2000/svg" xmlns:xlink="http://www.w3.org/1999/xlink">
    <!-- Generator: Sketch 3.7.2 (28276) - http://www.bohemiancoding.com/sketch -->
    <title>stars</title>
    <desc>Created with Sketch.</desc>
    <defs></defs>
    <g id="about_service" stroke="none" stroke-width="1" fill="none" fill-rule="evenodd">
        <g id="О-сервисе" transform="translate(-372.000000, -2474.000000)" fill="#FFC400">
            <g id="отзывы" transform="translate(0.000000, 2190.000000)">
                <path d="M454.005,284 L456.355,291.276 L464.005,291.261 L457.805,295.743 L460.183,303.01 L454.003,298.504 L447.822,303.01 L450.2,295.743 L444,291.261 L451.65,291.276 L454.005,284 Z M478.005,284 L480.355,291.276 L488.005,291.261 L481.805,295.743 L484.183,303.01 L478.003,298.504 L471.822,303.01 L474.2,295.743 L468,291.261 L475.65,291.276 L478.005,284 Z M430.005,284 L432.355,291.276 L440.006,291.261 L433.806,295.743 L436.183,303.01 L430.003,298.504 L423.822,303.01 L426.201,295.743 L420.001,291.261 L427.651,291.276 L430.005,284 Z M406.005,284 L408.355,291.276 L416.006,291.261 L409.806,295.743 L412.185,303.01 L406.004,298.504 L399.823,303.01 L402.202,295.743 L396.002,291.261 L403.653,291.276 L406.005,284 Z M382.005,284 L384.355,291.276 L392.005,291.261 L385.805,295.743 L388.183,303.01 L382.002,298.504 L375.822,303.01 L378.2,295.743 L372,291.261 L379.649,291.276 L382.005,284 Z" id="stars"></path>
            </g>
        </g>
    </g>
</svg>